<?xml version="1.0" encoding="UTF-8"?>
<svg width="100px" height="100px" viewBox="0 0 100 100" version="1.1" xmlns="http://www.w3.org/2000/svg" xmlns:xlink="http://www.w3.org/1999/xlink">
    <!-- Generator: sketchtool 52.5 (67469) - http://www.bohemiancoding.com/sketch -->
    <title>25D5C645-6CA2-4FB4-AA47-DEF3FC00EC64</title>
    <desc>Created with sketchtool.</desc>
    <defs>
        <polygon id="path-1" points="0 0.0856763559 100 0.0856763559 100 99.2591968 0 99.2591968"></polygon>
    </defs>
    <g id="UI" stroke="none" stroke-width="1" fill="none" fill-rule="evenodd">
        <g id="Tablet---768" transform="translate(-40.000000, -5053.000000)">
            <g id="footer---tablet" transform="translate(0.000000, 5010.000000)">
                <g id="footer">
                    <g id="city-seal" transform="translate(40.000000, 43.000000)">
                        <g id="seal">
                            <path d="M15.3786927,83.9113233 C6.13095812,74.7646407 1.03806049,62.6033449 1.03806049,49.6684176 C1.03806049,36.733148 6.13095812,24.5720233 15.3786927,15.4253407 C24.6264274,6.27882924 36.9219075,1.24158283 50.0000852,1.24158283 C63.0782629,1.24158283 75.373397,6.27882924 84.6213047,15.4253407 C93.8688663,24.5720233 98.9619369,36.733148 98.9619369,49.6684176 C98.9619369,62.6033449 93.8688663,74.7646407 84.6213047,83.9113233 C75.373397,93.0578348 63.0782629,98.0952523 50.0000852,98.0952523 C36.9219075,98.0952523 24.6264274,93.0578348 15.3786927,83.9113233 M14.6447844,14.6994512 C5.20102906,24.0400121 0,36.4586714 0,49.6684165 C0,62.8778193 5.20102906,75.2966498 14.6447844,84.6372106 C24.0885396,93.9777714 36.6445733,99.1219675 50.0000865,99.1219675 C63.3552537,99.1219675 75.9112874,93.9777714 85.3552156,84.6372106 C94.7987979,75.2966498 100,62.8778193 100,49.6684165 C100,36.4586714 94.7987979,24.0400121 85.3552156,14.6994512 C75.9112874,5.3588904 63.3552537,0.214865506 50.0000865,0.214865506 C36.6445733,0.214865506 24.0883666,5.3588904 14.6447844,14.6994512" id="Fill-1" fill="#FEFEFE"></path>
                            <g id="Group-5" transform="translate(0.000000, 0.214866)">
                                <mask id="mask-2" fill="white">
                                    <use xlink:href="#path-1"></use>
                                </mask>
                                <g id="Clip-4"></g>
                                <path d="M49.9568219,1.19902367 C36.9127805,1.19902367 24.6493954,6.23666333 15.4257339,15.3839249 C6.20224519,24.5313577 1.12262517,36.6933924 1.12262517,49.6296318 C1.12262517,62.5656999 6.20224519,74.7277346 15.4257339,83.8753387 C24.6493954,93.0226002 36.9127805,98.0602399 49.9568219,98.0602399 C63.0005179,98.0602399 75.263903,93.0226002 84.4879099,83.8753387 C93.7113986,74.7275633 98.7910186,62.5655286 98.7910186,49.6296318 C98.7910186,36.6933924 93.7113986,24.5313577 84.4879099,15.3839249 C75.263903,6.23666333 63.0006906,1.19902367 49.9568219,1.19902367 M49.9568214,98.145884 C36.8898095,98.145884 24.6046629,93.0993375 15.3645939,83.9358038 C6.12469771,74.77227 1.03626947,62.5886532 1.03626947,49.6296328 C1.03626947,36.6704411 6.12469771,24.4869955 15.3645939,15.3234618 C24.6046629,6.15992808 36.8896368,1.11338153 49.9568214,1.11338153 C63.0236606,1.11338153 75.3088072,6.15992808 84.5488761,15.3234618 C93.7887724,24.4869955 98.8773733,36.6706123 98.8773733,49.6296328 C98.8773733,62.5886532 93.7887724,74.7720988 84.5488761,83.9358038 C75.3086345,93.0993375 63.0236606,98.145884 49.9568214,98.145884 M49.9568214,0.171318458 C36.6359235,0.171318458 24.1122622,5.31583943 14.6930913,14.6573372 C5.27374777,23.9988349 0.0863557868,36.4188236 0.0863557868,49.6296314 C0.0863557868,62.8404393 5.27374777,75.260428 14.6930913,84.6019257 C24.1124349,93.9434235 36.6359235,99.0879444 49.9568214,99.0879444 C63.2775466,99.0879444 75.8010352,93.9434235 85.2205514,84.6019257 C94.639895,75.2602567 99.827287,62.840268 99.827287,49.6296314 C99.827287,36.4189949 94.639895,23.9990062 85.2205514,14.6573372 C75.8012079,5.31583943 63.2775466,0.171318458 49.9568214,0.171318458 M49.9568208,99.1735886 C36.6129524,99.1735886 24.0677023,94.0201607 14.6319513,84.6622195 C5.19637292,75.3046209 0,62.8632214 0,49.6296325 C0,36.3960436 5.19637292,23.9544728 14.6319513,14.5967029 C24.0675296,5.23910421 36.6127797,0.0856763559 49.9568208,0.0856763559 C63.3006892,0.0856763559 75.8457666,5.23910421 85.2815176,14.5967029 C94.7172687,23.9546441 99.9136416,36.3962148 99.9136416,49.6296325 C99.9136416,62.8630501 94.7172687,75.3044496 85.2815176,84.6622195 C75.8457666,94.0201607 63.3005165,99.1735886 49.9568208,99.1735886" id="Fill-3" fill="#FEFEFE" mask="url(#mask-2)"></path>
                            </g>
                            <path d="M11.1318182,49.9416429 C11.1318182,28.9255328 28.444839,11.8274894 49.7251892,11.8274894 C71.0057124,11.8274894 88.3187333,28.9255328 88.3187333,49.9416429 C88.3187333,70.9579239 71.0057124,88.0557965 49.7251892,88.0557965 C28.444839,88.0557965 11.1318182,70.9579239 11.1318182,49.9416429 M10.4395604,49.9416415 C10.4395604,71.3347903 28.0630582,88.7394555 49.7251877,88.7394555 C71.3873172,88.7394555 89.0109881,71.3347903 89.0109881,49.9416415 C89.0109881,28.5484926 71.3873172,11.1438274 49.7251877,11.1438274 C28.0630582,11.1438274 10.4395604,28.5484926 10.4395604,49.9416415" id="Fill-6" fill="#FEFEFE"></path>
                            <path d="M76.7820153,36.2740659 C76.709857,36.4122119 75.6851409,38.3710771 75.6851409,38.3710771 L75.6851409,67.7461805 C75.4148064,67.9474936 50.5409264,86.4864417 50.1343889,86.7896096 C49.7280241,86.4859281 24.8917769,67.9259243 24.6223055,67.7249536 C24.6219603,67.3878912 24.5867443,38.3524179 24.5867443,38.3524179 C24.5867443,38.3524179 23.3215582,36.4341235 23.2179818,36.2771472 L23.2179818,34.6750307 L76.7820153,34.6750307 L76.7820153,36.2740659 Z M25.1520991,27.8095027 L25.1520991,26.705191 L26.7868805,26.705191 C26.7868805,26.705191 30.3540529,24.4537713 30.6965456,24.2375652 C31.0323059,24.4611323 34.4033735,26.705191 34.4033735,26.705191 L35.5732693,26.705191 L35.5732693,27.9978058 L41.150515,27.9955804 C41.4590002,28.1652243 41.8387804,28.2907026 41.8387804,28.2907026 C41.8387804,28.2907026 41.6841063,28.5206035 41.4524403,28.7119879 C41.2207744,28.9035434 41.4524403,29.1332731 41.6454378,29.1716185 C41.8386078,29.2099638 41.9931093,29.4780389 41.9931093,29.4780389 L41.8772763,29.6312491 C41.7614434,29.7844593 41.6842789,29.9758437 41.9159449,30.129225 C42.1476108,30.2824352 42.7656169,30.512165 42.7656169,30.512165 C42.7656169,30.512165 42.6882798,30.8184142 42.6111154,31.0099697 C42.5339509,31.2015253 42.6111154,31.3929096 42.9587869,31.3929096 C43.3064585,31.3929096 43.8856234,31.2780448 43.8856234,31.2780448 C43.8856234,31.2780448 43.6539574,31.6611559 43.6152889,31.8525403 C43.5764477,32.0440958 43.7311219,32.197306 44.0014564,32.197306 L44.4649609,32.197306 L44.4007435,32.3941683 L43.1460876,32.3941683 L42.6727433,33.0980793 L42.6727433,33.9902933 L26.6529217,33.9902933 L26.6646603,29.0504198 C26.6646603,29.0504198 25.3609783,27.9808585 25.1520991,27.8095027 Z M41.2837839,26.5358895 C41.2837839,26.3932928 41.7728373,26.2221082 42.2044058,26.2221082 C42.6359743,26.2221082 43.2978277,26.2221082 43.3121558,26.3362883 C43.3228587,26.4223942 43.1970133,26.4932646 43.2258421,26.5930652 C43.2546709,26.6928658 43.3841414,26.8212542 43.3553126,26.8926382 C43.3264839,26.963851 42.9812291,26.9640222 42.4490188,26.9354343 C41.9168086,26.9068465 41.2837839,26.6786575 41.2837839,26.5358895 Z M41.1974697,24.3104895 C40.1905341,23.953912 39.5575095,23.283382 39.6006663,23.1977897 C39.6438232,23.1121974 40.4063184,23.0694013 41.4275821,23.582955 C42.4488457,24.0965088 42.8919803,24.5792493 42.8231019,24.6672382 C42.7224602,24.7956266 42.2044053,24.6672382 41.1974697,24.3104895 Z M43.2258421,25.765559 C43.1970133,25.8511513 42.8519312,25.8941186 42.2620634,25.7371423 C41.6721956,25.5801661 41.2694558,25.3803937 41.2837839,25.2805931 C41.298112,25.1807924 41.9166359,25.1094085 42.3338764,25.1950008 C42.7511168,25.2805931 42.8807599,25.1950008 42.9957298,25.3233892 C43.1106996,25.4517776 43.0532147,25.5373699 43.1395284,25.5943744 C43.2258421,25.6515501 43.2422417,25.7167714 43.2258421,25.765559 Z M39.4711967,21.6429203 C39.5863392,21.6143325 40.1185494,21.9424933 40.7227453,22.1850619 C41.3269412,22.4276304 42.1037644,22.8554207 42.5641617,23.1977898 C43.0245589,23.540159 43.3264842,24.2676935 43.2546712,24.3248691 C43.1828582,24.3818736 42.4058623,23.6543391 41.8736521,23.3547661 C41.3414419,23.0551931 40.6795885,22.8982168 40.1905351,22.6272316 C39.7014817,22.3560753 39.3560543,21.6715081 39.4711967,21.6429203 Z M39.7158087,20.5730166 C39.8166231,20.5302204 40.0154898,20.4605483 40.5789457,20.7584095 C41.2262984,21.1007787 41.9454641,21.5145318 42.6791306,22.2562746 C43.412797,22.9981886 43.5560777,23.3799303 43.4559539,23.3975623 C43.2113408,23.4403584 42.8374299,22.9268047 42.2189059,22.4988432 C41.600382,22.0708817 40.823386,21.8283132 40.3774895,21.557328 C39.9315929,21.2861716 39.6149943,20.6158127 39.7158087,20.5730166 Z M40.8233861,19.7313022 C41.197297,20.0024585 41.2981114,19.988079 42.0462786,20.4732161 C42.7944457,20.958182 43.153856,21.5003236 43.398469,21.9424933 C43.643082,22.3846631 43.7537362,22.6457195 43.6717382,22.7270322 C43.5997525,22.7984162 43.4416258,22.6130233 42.9669005,22.0566734 C42.4921752,21.5003236 41.6435389,20.9723903 41.2262984,20.729993 C40.809058,20.4874244 40.2048621,19.5031131 40.1905341,19.3747247 C40.176206,19.2463363 40.4494752,19.460317 40.8233861,19.7313022 Z M40.6939165,18.2050203 C40.7370734,18.0624235 40.9385295,18.2620247 41.6578679,18.8611708 C42.3772062,19.4603169 42.7654452,19.8882783 43.355313,20.6300212 C43.9451808,21.3719352 44.4138641,22.2163888 44.3047636,22.2706543 C44.160965,22.3420382 43.7148958,21.7285127 43.1683575,21.1151583 C42.6218192,20.5018039 42.3627055,20.3020315 41.6578679,19.7313021 C40.9530302,19.1607438 40.6507597,18.347617 40.6939165,18.2050203 Z M42.2763915,18.3048209 C42.8949154,18.9609714 43.2833271,19.3747245 43.7868812,19.9880788 C44.2904353,20.6016043 44.7408202,21.4638611 44.6211894,21.5431195 C44.4917189,21.6287118 44.0746511,21.157783 43.6862394,20.5730165 C43.2978278,19.9880788 42.6359743,19.3319283 42.0749353,18.7755785 C41.5138963,18.2192286 41.226299,17.448898 41.2406271,17.2491256 C41.2549552,17.0495244 41.6578675,17.6486704 42.2763915,18.3048209 Z M44.7363314,22.0636922 C44.8226451,21.999498 44.973694,22.1278864 45.124743,22.2776729 C45.275792,22.4274594 45.4484194,22.6628382 45.3405273,22.6414402 C45.2326351,22.6200421 45.1822279,22.7237799 45.1463214,22.8126247 C45.1031646,22.9196151 45.0384293,22.7698286 44.9089588,22.598644 C44.7794882,22.4274594 44.6500177,22.1278864 44.7363314,22.0636922 Z M46.1917535,24.1473507 C46.4603617,25.1934597 45.8799884,25.6585682 45.8799884,26.8354622 C45.8799884,28.0123563 47.2012785,28.5625435 47.9565233,28.8835146 C48.7117682,29.2044857 48.9872815,29.9381829 48.965703,30.4517366 C48.9441246,30.9652904 48.3806688,31.4856915 48.2104582,31.4574461 C48.0809877,31.436048 48.1457229,31.3076595 48.2104582,31.0080865 C48.2751935,30.7085135 48.3830856,30.7299116 48.555713,30.5801251 C48.7283404,30.4303385 48.4693993,30.4089405 48.3399288,30.3875424 C48.2104582,30.3661443 48.1673014,30.3233482 47.994674,30.1949597 C47.8220466,30.0665713 47.7357329,30.1949597 47.8004682,30.3661443 C47.8652034,30.5373289 48.0594092,30.6443193 47.8867818,30.7085135 C47.7141545,30.7727077 47.6709976,30.9224942 47.5631055,31.0722807 C47.4552134,31.2220673 47.2394291,31.2648634 47.1746939,31.2006692 C47.1099586,31.136475 47.1531154,30.7513096 47.2178507,30.4945328 C47.282586,30.2377559 47.4336349,30.0023771 47.6494192,30.0237752 C47.8652034,30.0451732 47.8867818,30.0451732 47.8652034,29.8953867 C47.843625,29.7456002 47.6062623,29.7669983 47.3688997,29.7456002 C47.131537,29.7242021 47.1746939,29.5316195 47.1746939,29.381833 C47.1746939,29.2320464 46.6999685,29.2962407 46.5489196,29.2320464 C46.3978706,29.1678522 46.2684,29.1892503 46.2899785,29.3390368 C46.3115569,29.4888233 46.3331353,29.4460272 46.1389295,29.6600079 C45.9447237,29.8739886 45.5347336,29.8739886 45.4484199,29.7883963 C45.3621062,29.7028041 45.4915768,29.4888233 45.5778905,29.3390368 C45.6642042,29.1892503 45.85841,29.0394638 46.0526158,28.9752696 C46.2468216,28.9110753 46.2899785,28.804085 46.1389295,28.7398908 C45.9878805,28.6756965 45.9447237,28.5473081 45.8368316,28.4189197 C45.7289394,28.2905312 45.5778905,28.3547254 45.5778905,28.504512 C45.5778905,28.6542985 45.5563121,28.804085 45.3189494,28.8896773 C45.0815867,28.9752696 44.6715967,28.804085 44.6715967,28.6970946 C44.6715967,28.5901042 44.9089593,28.504512 45.0600083,28.2905312 C45.2110573,28.0765505 45.4484199,28.1835409 45.6426258,28.1835409 C45.8368316,28.1835409 45.7936747,28.0123563 45.6857826,27.9481621 C45.5778905,27.8839678 45.5347336,27.8197736 45.4052631,27.6057929 C45.2757925,27.3918122 45.1679004,27.4132102 45.1679004,27.5415987 C45.1679004,27.6699871 45.0600083,27.7127832 44.8226456,27.7341813 C44.585283,27.7555794 44.4126556,27.7769775 44.3277229,27.627191 C44.2736905,27.5321835 44.5205477,27.2848218 44.8226456,27.1992295 C45.1247436,27.1136372 45.2326357,27.2206276 45.3405278,27.2634237 C45.4484199,27.3062199 45.5347336,27.3704141 45.6210473,27.2634237 C45.707361,27.1564333 45.5563121,27.0066468 45.4268415,26.9210545 C45.297371,26.8354622 45.297371,26.6856757 45.3621062,26.5572873 C45.4268415,26.4288989 45.4052631,26.3219085 45.2542141,26.3005104 C45.1031652,26.2791123 45.0600083,26.1507239 44.9736946,25.9795393 C44.8873809,25.8083547 44.995273,25.8511509 45.1031652,25.7013644 C45.2110573,25.5515779 45.1247436,25.4231894 44.9736946,25.3803933 C44.8226456,25.3375971 44.8010672,25.1450145 44.7794888,25.016626 C44.7579104,24.8882376 44.7579104,24.6956549 44.5421261,24.6956549 C44.3263419,24.6956549 44.0889792,24.6314607 43.8947734,24.4388781 C43.7005676,24.2462954 43.5495186,23.9253243 43.6142539,23.8183339 C43.6789892,23.7113436 43.7868813,23.7755378 44.0674008,23.7755378 C44.3479203,23.7755378 44.4773909,23.9039262 44.585283,24.117907 C44.6931751,24.3318877 44.7363319,24.4602761 44.8658025,24.4816742 C44.995273,24.5030723 44.9736946,24.3104896 44.9736946,24.2034992 C44.9736946,24.0965089 44.9089593,24.0323147 44.8442241,23.9253243 C44.7794888,23.8183339 44.9089593,23.6257513 44.8658025,23.5187609 C44.8226456,23.4117705 44.4773909,23.4545667 44.3263419,23.3261782 C44.1752929,23.1977898 44.0674008,22.8340226 44.0889792,22.7484303 C44.1105576,22.662838 44.283185,22.662838 44.434234,22.7056341 C44.585283,22.7484303 44.5421261,22.8768187 44.7147535,22.9196149 C44.8873809,22.962411 44.8873809,23.1335956 44.9736946,23.3261782 C45.0600083,23.5187609 45.0384299,23.7327416 45.1894788,23.7327416 C45.3405278,23.7327416 45.3189494,23.8611301 45.3405278,24.0323147 C45.3621062,24.2034992 45.3189494,24.2248973 45.2110573,24.3318877 C45.1031652,24.4388781 45.1894788,24.6956549 45.297371,24.8882376 C45.4052631,25.0808202 45.5563121,25.0808202 45.6426258,25.0380241 C45.7289394,24.995228 45.6642042,24.8240434 45.5994689,24.6956549 C45.5347336,24.5672665 45.6426258,24.5672665 45.7289394,24.5672665 C45.8152531,24.5672665 45.9231453,24.3532858 45.8152531,24.3104896 C45.707361,24.2676935 45.6642042,24.139305 45.707361,23.9467224 C45.7505179,23.7541397 45.5347336,23.6899455 45.4268415,23.5187609 C45.3189494,23.3475763 45.2326357,23.1335956 45.3189494,23.0266052 C45.4340919,22.8838373 46.0066969,23.4259789 46.1917535,24.1473507 Z M46.2516546,23.080528 C46.2516546,23.080528 46.3074133,23.0480029 46.52993,22.9661767 C46.6269466,22.9242365 46.7237906,22.8709981 46.8104495,22.7872888 C46.9338781,22.6679731 47.0811293,22.451767 47.0811293,22.0994692 C47.0811293,21.6672281 47.0013754,21.4664286 46.9124723,21.2824052 C46.8729406,21.2002366 46.8580947,21.1695945 46.8580947,21.0793803 C46.8580947,20.9853999 46.91955,20.8683097 46.9908451,20.7327315 C47.099773,20.5257694 47.2351129,20.2681366 47.2351129,19.9310741 C47.2351129,19.3071064 47.2732635,18.5867617 47.7288272,17.9345484 C47.9691246,17.5899539 48.2337624,17.3848747 48.4464393,17.2198528 C48.691225,17.0300091 48.9225457,16.8504365 48.9225457,16.5472686 C48.9225457,16.4673254 48.969673,16.3444149 49.015074,16.2254416 C49.0796366,16.0568248 49.152658,15.865954 49.152658,15.6605325 C49.1535211,15.6269803 49.2196374,15.5229001 49.2589965,15.4605889 C49.3679244,15.2888908 49.5170744,15.053512 49.5170744,14.7385324 C49.5170744,14.470115 49.4626968,14.3216979 49.4229925,14.2133381 C49.3948542,14.1364762 49.3793178,14.0940224 49.3793178,13.9930235 C49.3793178,13.9134227 49.4174684,13.8139645 49.4620063,13.6987572 C49.5291583,13.5238066 49.6130553,13.3060598 49.6130553,13.0311374 C49.6130553,12.8505377 49.6819336,12.755359 49.7692831,12.6348451 C49.8535252,12.5184396 49.9583101,12.3734463 49.9583101,12.1707637 C49.9583101,12.0956137 49.999568,11.8295929 50.1295564,11.8285657 C50.2554018,11.8295929 50.2964871,12.0956137 50.2964871,12.1707637 C50.2964871,12.3734463 50.4014446,12.5184396 50.4856867,12.6348451 C50.572691,12.755359 50.6417419,12.8505377 50.6417419,13.0311374 C50.6417419,13.3060598 50.7254662,13.5238066 50.7927909,13.6987572 C50.8373287,13.8139645 50.8754794,13.9134227 50.8754794,13.9930235 C50.8754794,14.0940224 50.8599429,14.1364762 50.8319773,14.2133381 C50.7921004,14.3216979 50.7378954,14.470115 50.7378954,14.7385324 C50.7378954,15.053512 50.8868728,15.2888908 50.9958007,15.4605889 C51.0353324,15.5229001 51.1009308,15.6269803 51.1019665,15.6605325 C51.1019665,15.865954 51.1751606,16.056996 51.2395506,16.2254416 C51.2851242,16.3444149 51.3322515,16.4673254 51.3322515,16.5472686 C51.3322515,16.8504365 51.5635722,17.0300091 51.8083578,17.2198528 C52.0210348,17.3848747 52.2855,17.5899539 52.5257973,17.9345484 C52.981361,18.5867617 53.0195116,19.3071064 53.0195116,19.9310741 C53.0195116,20.2681366 53.1550242,20.5257694 53.263952,20.7327315 C53.3350745,20.8683097 53.3967025,20.9853999 53.3967025,21.0793803 C53.3967025,21.1695945 53.3818565,21.2002366 53.3421522,21.2824052 C53.2534218,21.4664286 53.1734953,21.6672281 53.1734953,22.0994692 C53.1734953,22.4469739 53.3171213,22.6614681 53.4376152,22.7804414 C53.5218574,22.8636371 53.5774434,22.8917114 53.7115749,22.9598428 C53.845879,23.0279743 54.0872121,23.082411 54.0872121,23.082411 C54.0872121,23.082411 53.8097999,23.577648 53.7542138,23.6952518 C53.0170949,25.2636449 54.3849943,26.2753457 53.6887881,27.4619972 C53.1783289,28.3321284 51.4242619,28.2912153 50.8578714,29.4996072 C50.8578714,29.4996072 50.8639134,24.5609322 50.8642586,24.3859816 L51.3013512,24.3859816 L51.3013512,25.264672 L52.6027891,25.264672 L52.6027891,24.3859816 L53.3148771,24.3880358 L53.3148771,22.7509977 L52.6024439,22.7509977 C52.6024439,22.5977875 52.6027891,22.2340202 52.6027891,22.2340202 L51.3067026,22.2340202 L51.3067026,22.7509977 L50.8670207,22.7509977 L50.8670207,21.852621 L51.7507003,21.852621 L51.7507003,20.4244281 L50.8646039,20.4244281 L50.8646039,19.3904732 L50.6919765,19.3904732 L49.397271,19.3904732 L49.397271,20.4244281 L48.5111746,20.4244281 L48.5111746,21.852621 L49.3950269,21.852621 L49.3950269,22.7509977 L48.9551723,22.7509977 L48.9551723,22.2340202 L47.6590858,22.2340202 C47.6590858,22.2340202 47.6592584,22.5977875 47.659431,22.7509977 L46.9469978,22.7509977 L46.9469978,24.3859816 L47.6590858,24.3859816 L47.6590858,25.264672 L48.9606963,25.264672 L48.9606963,24.3859816 L49.3976163,24.3859816 C49.3977889,24.5611034 49.4014141,29.4943005 49.4014141,29.4943005 C48.8127547,28.321515 47.152597,28.3216862 46.6469714,27.4601142 C45.9507651,26.2736339 47.3095153,25.2660415 46.5812003,23.6933688 C46.3629993,23.2219264 46.2516546,23.080528 46.2516546,23.080528 Z M54.4968558,26.8926382 C54.4968558,25.7157441 53.9166551,25.2506356 54.1850907,24.2045266 C54.3701473,23.4831547 55.0337269,22.7230952 55.149042,22.8658631 C55.2353557,22.9728535 55.2099795,23.0793303 55.1003611,23.2494878 C54.9902248,23.4208436 55.2113605,23.55762 55.2938764,23.3727407 C55.3801901,23.180158 55.5909682,22.6809838 55.853707,22.4070884 C56.0720807,22.1788994 56.6631569,21.4972423 56.7834781,21.7190976 C56.8255992,21.7968154 56.6048088,22.287088 56.4568671,22.418729 C56.2542026,22.5988152 55.7908707,23.0421832 56.1640911,23.1183604 C56.2357314,23.1330823 56.3876435,23.0331105 56.5255728,22.9307421 C56.6631569,22.8283737 56.973023,22.6748211 57.0762542,22.7260053 C57.179658,22.7771895 57.0762542,22.9478605 56.9386702,23.186663 C56.8007409,23.4256367 56.5768432,23.458333 56.3876435,23.5108866 C56.2195045,23.5577912 55.9918089,23.8474355 56.3094433,23.8327137 C56.5896176,23.8198748 56.9599033,23.7452383 57.0246386,23.8522287 C57.0893739,23.9592191 56.8230098,24.2399618 56.628804,24.4325445 C56.4345982,24.6251271 56.2043133,24.6947993 56.0610325,24.5349129 C55.9231032,24.3811891 55.781894,24.524813 55.7682565,24.6543997 C55.7497853,24.8317469 55.3354796,25.1468978 55.4597713,25.2427611 C55.5842357,25.3386245 55.6740019,25.1742873 55.7912159,25.0921187 C55.9086025,25.0099501 56.0330669,24.9002208 56.212772,24.9002208 C56.3921319,24.9002208 56.8344032,24.8317469 57.034651,24.7769679 C57.2350714,24.7221888 57.3179325,24.8454417 57.131495,25.0508632 C56.9447121,25.2564559 56.716844,25.523675 56.42683,25.4755722 C56.1364707,25.4276405 56.1989618,25.2153716 56.0815752,25.2290664 C55.9638433,25.2427611 55.9571108,25.434659 55.7844835,25.6606227 C55.6115108,25.8865864 55.4526936,26.1127212 55.6047783,26.1469581 C55.7568631,26.181195 55.9690221,26.1031349 55.8809822,26.3249901 C55.8060619,26.5144914 55.5973554,26.7998561 55.5255424,26.8854484 C55.4533841,26.9710407 55.7268259,27.0210266 55.8778749,26.9140362 C56.0289238,26.8070459 56.1223152,26.6214818 56.4028348,26.7070741 C56.6833543,26.7926664 56.9638738,26.6642779 56.7555125,26.9710407 C56.546806,27.2778035 56.2662865,27.42759 56.0360016,27.4346086 C55.8060619,27.4417983 55.9351872,27.0994292 55.7123252,27.1422253 C55.4894632,27.1850214 55.5831999,27.3062201 55.3599927,27.5273906 C55.1371307,27.7485611 55.2234444,28.1265367 55.0076602,28.2621149 C54.791876,28.3975219 54.6624054,28.5331001 54.6694832,28.7542706 C54.6765609,28.9752699 54.5039335,28.9752699 54.3387291,29.0394641 C54.1731794,29.1036583 54.295227,29.4032313 54.1371003,29.4960134 C53.9789736,29.5887954 53.6910311,29.5246012 53.5760613,29.6386101 C53.4610914,29.7527903 53.5689836,30.0095671 53.3677,30.1165575 C53.1660712,30.2235479 52.8929747,30.3233485 52.7850826,30.3733344 C52.6771905,30.4233203 52.7847373,30.6157318 52.9718654,30.6087132 C53.1589935,30.6015234 53.4610914,30.9226657 53.4610914,31.0438644 C53.4610914,31.1650631 53.4034339,31.2362759 53.101336,31.2292573 C52.799238,31.2220676 52.727425,30.6657177 52.4253271,30.6657177 C52.1232292,30.6657177 52.1306522,30.7442914 52.2526997,31.0010683 C52.3750926,31.2578452 52.2311213,31.3292291 52.2887789,31.514622 C52.3460912,31.7000149 52.2240436,31.8711995 52.0514162,31.7570194 C51.8787888,31.6430105 51.4327196,31.1582157 51.4111412,30.5089126 C51.3943964,29.9951876 51.6650761,29.2616617 52.4203209,28.9406906 C53.1755657,28.6197195 54.4968558,28.0695322 54.4968558,26.8926382 Z M57.0417311,19.4324139 C57.4204756,18.9034535 57.8428948,18.4499855 58.2497776,18.0709829 C58.5435894,17.7970875 59.0038141,17.2823355 59.0381669,17.2992828 C59.0725198,17.3164012 59.0381669,17.7087563 58.7626536,18.2378878 C58.4874855,18.7668482 57.7990475,19.8078217 57.5751498,20.0467953 C57.3515973,20.285769 56.8054042,20.8231174 56.7147748,20.883032 C56.5084851,21.0196373 56.6115436,20.7464267 56.5428379,20.4905058 C56.4739596,20.2345848 56.6631592,19.9615454 57.0417311,19.4324139 Z M59.5199698,18.2378877 C59.6235462,18.2207693 59.0552568,19.7225716 58.6595948,20.3027161 C58.2637602,20.8828607 57.5407967,21.6766436 57.3861225,21.7533343 C57.2481932,21.8216369 57.214013,21.7362158 57.2485385,21.5655448 C57.2828913,21.3948737 57.3172442,21.2925054 57.1276993,21.2072554 C56.9386723,21.1220055 57.5580594,20.7123608 57.8850157,20.3027161 C58.2121446,19.8932426 58.3840815,19.6885059 58.7455633,19.0912429 C59.1039378,18.4991154 59.4167386,18.2550062 59.5199698,18.2378877 Z M59.8641871,19.6371502 C60.1050023,19.5861372 59.5715837,20.6440579 59.038165,21.3608078 C58.5044011,22.0775576 57.6733728,22.6048062 57.5751479,22.5724523 C57.5235323,22.5553338 57.5751479,22.4870312 57.5751479,22.4017812 C57.5751479,22.3163601 57.4548266,22.2822944 57.4720893,22.179926 C57.4891794,22.0775576 58.2464958,21.3777551 58.5220091,21.0706499 C58.7970046,20.7635448 59.6231993,19.6883344 59.8641871,19.6371502 Z M60.4146956,21.1048873 C60.483574,21.138953 60.2772842,21.8728213 59.1241332,22.7088868 C58.0711061,23.4725412 57.2350717,23.4944528 57.2485366,23.3744524 C57.2656267,23.2208999 57.8850138,22.8624394 58.332464,22.5724527 C58.7799142,22.282466 59.2101017,21.736216 59.5715834,21.565545 C59.9328926,21.394874 60.3459899,21.0706504 60.4146956,21.1048873 Z M60.8450561,22.0945053 C60.8966717,22.1799264 60.6902093,22.5212685 60.2943747,22.9990446 C59.8985401,23.476992 59.0552553,23.9547681 58.5390994,24.1595049 C58.0229435,24.3642416 57.4177119,24.3693772 57.3515956,24.3301759 C57.2652819,24.2788205 57.3515956,24.0740838 57.5235325,23.9376497 C57.6958146,23.8012155 58.2121432,23.6305445 58.7455618,23.3573339 C59.2791531,23.0842945 60.019034,22.4358474 60.2427591,22.3163605 C60.4663116,22.1970449 60.7934405,22.0092554 60.8450561,22.0945053 Z M59.468352,24.8420179 C59.1584858,25.0809916 58.779914,25.2175969 58.3668166,25.3028468 C57.9538919,25.3882679 57.489179,25.3725189 57.489179,25.2686099 C57.489179,25.2004784 57.5235318,25.0809916 57.8850136,24.8591364 C58.2464953,24.63711 58.4184322,24.6715181 58.8315295,24.5518601 C59.2444543,24.4323732 59.5543204,24.3813602 59.6575516,24.4325444 C59.7606102,24.4837286 59.7782181,24.6032154 59.468352,24.8420179 Z M58.6766838,26.1731483 C58.2464963,26.1731483 57.5138656,26.0168568 57.5407955,25.8829904 C57.5580583,25.7977405 57.7303404,25.7124906 58.1432651,25.7124906 C58.5563625,25.7124906 58.6766838,25.6270695 58.9521971,25.6270695 C59.2273652,25.6270695 59.5372313,25.7124906 59.5372313,25.7977405 C59.5372313,25.8829904 59.1068712,26.1731483 58.6766838,26.1731483 Z M58.1432659,27.0775176 C57.609502,27.094636 57.3213869,26.8429947 57.2485381,26.7704124 C57.1280442,26.6510968 57.4720906,26.5656756 57.7474313,26.4804257 C58.0225994,26.3950046 58.1777914,26.5827941 58.4874849,26.5485572 C58.7973511,26.5143203 59.0897819,26.5997414 59.0725192,26.7192282 C59.0552564,26.8387151 58.6766846,27.0605703 58.1432659,27.0775176 Z M55.6588109,33.0789057 L56.9621477,33.0789057 C57.0292998,33.1787063 57.0684862,33.2369091 57.1142325,33.3053829 L57.1142325,33.986184 L56.5521577,33.986184 L55.6588109,33.0789057 Z M53.9729341,33.0789057 L55.1809805,33.0789057 L56.0744999,33.986184 L54.8845793,33.986184 L53.9729341,33.0789057 Z M54.1947591,30.5801256 C53.9573964,30.6015237 53.7200337,30.4197256 53.5905632,30.3019507 C53.5042495,30.2235481 53.5891822,30.0934478 53.7702683,30.1023494 C53.9142395,30.109368 53.8424265,29.9953591 54.0005532,29.9453732 C54.1590252,29.8953873 54.1731806,30.1593539 54.3387303,30.2877423 C54.5039347,30.4161308 54.4321217,30.5587275 54.1947591,30.5801256 Z M54.8219155,31.8388456 C55.0111151,32.1459508 55.0111151,32.3335691 54.9422368,32.3849244 C54.8731858,32.4361086 54.6496333,32.3335691 54.3573752,32.1800165 C54.0645991,32.0266351 53.8236112,31.7193588 53.7719957,31.5998719 C53.7203801,31.4803851 53.8236112,31.3951352 53.8752268,31.2756483 C53.9268424,31.1561615 53.7683705,31.0197274 53.8926622,31.0197274 C53.9958934,31.0197274 54.6323706,31.5315693 54.8219155,31.8388456 Z M55.3599945,29.4460278 C55.6981716,29.5174117 55.3670722,29.6671982 55.0433958,29.7313924 C54.7197195,29.7955867 54.6549842,29.7598091 54.5255136,29.7028046 C54.3960431,29.6458002 54.4328127,29.5086813 54.5255136,29.4604073 C54.6624072,29.3890233 54.5400143,29.2964124 54.6839856,29.2464265 C54.8276116,29.1964406 55.0218174,29.374815 55.3599945,29.4460278 Z M55.7484059,28.7042841 C55.9641901,28.7184924 55.7339052,28.8754687 55.525544,28.9254546 C55.3168374,28.9754405 55.1657885,28.9396629 55.1081309,28.8682789 C55.0504734,28.7970661 55.1661337,28.6820301 55.2807583,28.6400899 C55.4173066,28.590104 55.5326217,28.6900758 55.7484059,28.7042841 Z M56.4102582,27.9053661 C56.3094438,28.026736 56.1944739,28.0979488 55.9210321,28.1337264 C55.6479356,28.1693328 55.55558,28.1588905 55.4678852,28.0979488 C55.3960722,28.0481341 55.40315,27.9197456 55.5396982,27.8411719 C55.6762465,27.7627694 55.9065314,27.8769495 56.2160524,27.7627694 C56.525228,27.6485892 56.5107273,27.7841674 56.4102582,27.9053661 Z M56.0266821,30.183491 C55.8198745,29.9787542 55.8114158,29.7907935 55.8714901,29.6714779 C55.9058429,29.6031752 56.0090741,29.7055436 56.250062,29.8933331 C56.4912224,30.0811226 56.7147749,30.183491 56.8870571,30.2175567 C57.0589939,30.2516224 57.2652837,30.3370435 57.2309308,30.4222935 C57.196578,30.5077146 57.1622251,30.524833 56.7491278,30.5417803 C56.336203,30.5588988 56.2329719,30.3882277 56.0266821,30.183491 Z M55.8198738,31.8388443 C55.7912177,31.8768473 55.4476891,31.747603 55.2004867,31.5998707 C55.004382,31.4826092 54.8138014,31.3189568 54.7532091,31.2585286 C54.6156251,31.1220945 54.63237,30.9854892 54.7356011,30.934305 C54.8388323,30.8831208 54.7684003,30.7254598 54.8391776,30.6955025 C54.9594989,30.6441472 55.114173,30.9683708 55.4069491,31.1561602 C55.6995525,31.3439497 55.8714894,31.7705417 55.8198738,31.8388443 Z M55.475655,30.7295688 C55.2862827,30.5929635 55.1136553,30.2636044 55.1833968,30.1494242 C55.2350124,30.0641743 55.3725964,30.1494242 55.475655,30.1494242 C55.5792314,30.1494242 55.7855211,30.5417793 55.9918109,30.7465161 C56.1986185,30.951424 56.3362025,31.0366739 56.3189398,31.0880293 C56.3016771,31.1392135 56.2157086,31.1903977 56.0266816,31.1390423 C55.837482,31.0878581 55.6651998,30.8660029 55.475655,30.7295688 Z M57.4548285,29.3984381 C57.8506631,29.5692803 58.0398627,29.6374118 57.9022786,29.7226617 C57.7643494,29.8080828 57.3345072,30.0128196 56.680422,29.7226617 C56.3217023,29.5636312 56.2015537,29.2914477 56.1640935,29.1425172 C56.1470034,29.0742145 56.2329718,29.0401488 56.3705559,29.0230303 C56.5081399,29.0059118 56.4568696,28.8011751 56.5599281,28.9035435 C56.6631593,29.0059118 57.0589939,29.2277671 57.4548285,29.3984381 Z M57.5407948,28.3574647 C58.0398606,28.4257673 58.3668168,28.4769515 58.5563617,28.5793199 C58.7455613,28.6816883 58.814267,28.6816883 58.6939457,28.8011751 C58.5734518,28.9206619 57.9193667,29.0742145 57.5064419,28.9718461 C57.0933446,28.8694778 56.5771887,28.4427146 56.5771887,28.4427146 C56.559926,28.3062805 57.041729,28.289162 57.5407948,28.3574647 Z M57.4720908,27.4700429 C57.7130787,27.4700429 57.8506627,27.4530956 58.2121445,27.5213982 C58.573281,27.5897009 58.9005825,27.6918981 58.8833197,27.7602007 C58.8662296,27.8285034 58.4356969,28.0161217 57.8679254,28.0161217 C57.300154,28.0161217 57.0020265,27.58234 57.0246407,27.4700429 C57.0417308,27.384793 57.2312756,27.4700429 57.4720908,27.4700429 Z M56.9497189,26.1151172 C56.7986699,26.3005101 56.5252281,26.3290979 56.3812569,26.3290979 C56.2878655,26.3290979 56.2592093,26.2149178 56.2517863,26.122307 C56.2447086,26.0295249 56.1007374,25.9725205 56.1152381,25.9011365 C56.1297388,25.8297525 56.2447086,25.844132 56.4459922,25.8511506 C56.6472757,25.8583404 56.7339346,25.8369423 56.9207175,25.7655583 C57.1078456,25.6943455 57.1007678,25.9297243 56.9497189,26.1151172 Z M52.8770955,31.6851208 C52.8770955,31.5827524 53.2385773,31.6851208 53.4105142,31.7705419 C53.5827963,31.8557918 53.462475,31.9412129 53.462475,32.2483181 C53.462475,32.5555944 53.3418085,32.3849234 53.118256,32.1630681 C52.8943583,31.9412129 52.8770955,31.8058059 52.8770955,31.6851208 Z M52.3782012,32.2311999 C52.3952913,32.1800157 52.4298168,32.2142526 52.5328753,32.2311999 C52.6361065,32.2483184 52.5844909,32.3508579 52.7051575,32.5044105 C52.8256514,32.6577919 52.5328753,32.5554235 52.4469069,32.4872921 C52.3609385,32.4189894 52.3586943,32.289745 52.3782012,32.2311999 Z M52.259779,33.0789057 L53.4904397,33.0789057 L54.4020849,33.986184 L53.062669,33.986184 L52.259779,33.0789057 Z M51.6381479,32.316621 C51.7405159,32.2962501 51.8791357,32.3508579 51.8620456,32.5044105 C51.8447829,32.6577919 51.7412064,32.572542 51.6897635,32.5044105 C51.6381479,32.4361079 51.5521794,32.3335683 51.6381479,32.316621 Z M50.6339741,33.0789057 L51.8050783,33.0789057 L52.6077956,33.986184 L51.4171845,33.986184 L50.6339741,33.0789057 Z M50.0779407,33.0789057 L50.1839339,33.0789057 L50.9674897,33.986184 L49.2945576,33.986184 L50.0779407,33.0789057 Z M49.1362588,32.0779904 C49.1526584,32.1849808 49.1105373,32.3404164 49.0808454,32.3989615 C49.0088598,32.5415582 48.6204481,32.5273499 48.6204481,32.5273499 C48.6204481,32.5273499 48.6725816,32.3460655 48.7884146,32.1928553 C48.9044202,32.0396451 49.1362588,32.0779904 49.1362588,32.0779904 Z M49.3677511,31.3502845 C49.3292552,31.6567049 48.8657506,31.8099151 48.8657506,31.8099151 C48.8657506,31.8099151 48.9040739,31.5416688 49.0202521,31.3884586 C49.1362578,31.2354196 49.3677511,31.3502845 49.3677511,31.3502845 Z M51.2939272,31.5486869 C51.3969857,31.7022395 51.5734109,31.8660631 51.4489466,31.9069763 C51.3453702,31.941042 51.3457154,31.9412132 51.2423116,31.8729105 C51.1390804,31.8046079 51.0703747,31.7364764 51.0874648,31.5998711 C51.1047276,31.4632658 51.190696,31.3951343 51.2939272,31.5486869 Z M49.7502947,32.3883473 C49.7466695,29.9710498 49.7421812,24.0436126 49.7421812,24.0436126 L48.6152695,24.0436126 L48.6152695,24.922303 L48.0043412,24.922303 L48.0043412,24.0436126 L47.2922532,24.0436126 L47.2922532,23.0933669 L48.0048591,23.0933669 C48.0048591,23.0933669 48.0045138,22.7295997 48.0045138,22.5763895 L48.6097455,22.5763895 L48.6097455,23.0933669 L49.7402823,23.0933669 L49.7402823,21.5102519 L48.85643,21.5102519 L48.85643,20.7667973 L49.7425264,20.7667973 L49.7425264,19.7328424 L50.5193497,19.7328424 L50.5193497,20.7667973 L51.4054462,20.7667973 L51.4054462,21.5102519 L50.5217665,21.5102519 L50.5217665,23.0933669 L51.6519581,23.0933669 L51.6519581,22.5763895 L52.2571897,22.5763895 C52.2571897,22.7295997 52.2568445,23.0933669 52.2568445,23.0933669 L52.969623,23.0933669 L52.969623,24.0436126 L52.257535,24.0436126 L52.257535,24.922303 L51.6466066,24.922303 L51.6466066,24.0436126 L50.519695,24.0436126 C50.519695,24.0436126 50.5150341,29.9732752 50.5115815,32.389032 L49.7502947,32.3883473 Z M48.4567977,33.0789057 L49.6279019,33.0789057 L48.8445188,33.986184 L47.6540804,33.986184 L48.4567977,33.0789057 Z M47.6998266,32.341957 C47.6998266,32.341957 47.8579533,32.0565923 47.9156108,32.042384 C47.9732684,32.0280045 48.18888,32.0137962 48.18888,32.0137962 C48.18888,32.0137962 48.1025663,32.2421564 47.9730957,32.3277487 C47.8436252,32.413341 47.6998266,32.341957 47.6998266,32.341957 Z M46.7712629,33.0789057 L48.0020962,33.0789057 L47.1993788,33.986184 L45.8594449,33.986184 L46.7712629,33.0789057 Z M43.7095438,33.986184 L43.3632533,33.986184 L43.3632533,33.3055541 C43.4091722,33.2370803 43.4483586,33.1787063 43.5155106,33.0789057 L44.6030632,33.0789057 L43.7095438,33.986184 Z M45.080896,33.0789057 L46.2887698,33.0789057 L45.376952,33.986184 L44.187204,33.986184 L45.080896,33.0789057 Z M46.174835,31.4718256 C46.4049473,31.1722526 46.4482768,31.0866603 46.5777473,31.0438641 C46.687711,31.0074018 46.7072179,31.0294846 46.7072179,31.0294846 C46.7072179,31.0294846 46.7645302,31.3290576 46.6064035,31.5288301 C46.4482768,31.7286025 45.9592234,32.2847812 45.6714535,32.384753 C45.3836836,32.4845536 44.9377871,32.4133408 44.9377871,32.4133408 C44.9377871,32.4133408 45.0096001,32.1851517 45.4411685,31.9853793 C45.872737,31.7856069 45.9447227,31.7713986 46.174835,31.4718256 Z M47.2825862,31.5716267 C47.4552136,31.5288305 47.6709979,31.5288305 47.6709979,31.5288305 C47.6709979,31.5288305 47.6998266,31.657219 47.4983705,31.8284036 C47.2969143,31.9995881 47.0091444,32.2991612 46.8221889,32.327749 C46.6352335,32.3561656 46.5920766,32.327749 46.5920766,32.327749 C46.5920766,32.327749 46.6785629,32.0423843 46.7935328,31.9425837 C46.9085026,31.8426119 47.1099588,31.6144228 47.2825862,31.5716267 Z M46.9804878,30.0451732 C46.8725957,30.2163578 46.6783899,30.3233481 46.4841841,30.4089404 C46.2899782,30.4945327 46.0526156,30.5587269 46.0957724,30.3447462 C46.1389293,30.1307655 46.3331351,30.0665712 46.4626056,29.8739886 C46.5920762,29.681406 46.7431252,29.6172117 46.8294389,29.6386098 C46.9421645,29.6665129 47.08838,29.8739886 46.9804878,30.0451732 Z M44.5780322,31.3718535 C44.9664438,31.2006689 45.1249158,31.314849 45.3693562,31.1578727 C45.6137966,31.0010677 45.6137966,30.9440632 45.7720959,30.9582715 C45.9303952,30.9724798 45.9735521,31.0580721 45.9735521,31.0580721 C45.9735521,31.0580721 45.8009247,31.4004413 45.3836843,31.6430099 C44.9664438,31.8854073 44.0889788,31.8141945 44.0889788,31.8141945 C44.0889788,31.8141945 44.1896205,31.5430381 44.5780322,31.3718535 Z M43.5136109,30.5445183 C43.7293952,30.5159305 43.9451794,30.4447177 44.3047623,30.2877414 C44.6643451,30.1307652 44.9809437,30.1023485 45.2542129,30.2021491 C45.5274821,30.3019497 45.5851396,30.2163575 45.6426245,30.3019497 C45.7001094,30.387542 45.4268403,30.6729067 45.0241006,30.829883 C44.6213609,30.9868592 44.0603219,30.8582996 43.6430815,30.9010958 C43.2258411,30.9438919 43.0219681,31.0460891 43.0100568,30.9866881 C42.9669,30.7727073 43.2978267,30.5731061 43.5136109,30.5445183 Z M42.8805871,29.5032029 C43.1683569,29.5032029 43.4127973,29.5032029 43.743724,29.3748145 C44.0746507,29.246426 44.2614336,29.1036581 44.4917185,29.1892504 C44.7220035,29.2748427 44.9807719,29.246426 45.0096007,29.3176388 C45.0399831,29.3926177 44.9809445,29.5459991 44.7363315,29.6743875 C44.4917185,29.8027759 43.8157096,30.1593534 43.3553124,30.1593534 C42.8949151,30.1593534 42.30522,29.9311644 42.30522,29.8455721 C42.30522,29.7599798 42.5928172,29.5032029 42.8805871,29.5032029 Z M42.6216461,28.5188907 C42.9669009,28.4332984 43.3409845,28.3619145 43.7437242,28.2477344 C44.1464639,28.1337254 44.3910769,28.0623415 44.4773906,28.1621421 C44.5580076,28.2554377 44.4775632,28.4332984 44.2041214,28.6756958 C43.9306796,28.9182643 43.3698132,29.1180367 42.909416,29.1180367 C42.4490187,29.1180367 41.9742934,28.9894771 41.9742934,28.8754682 C41.9742934,28.7612881 42.2763913,28.604483 42.6216461,28.5188907 Z M43.6430818,27.391812 C43.6841671,27.473467 43.4561263,27.577376 43.4704544,27.6629683 C43.4847824,27.7485606 43.6717379,27.8199446 43.6717379,27.876949 C43.6717379,27.9339535 43.1106989,28.0195458 42.6791304,28.0337541 C42.2475619,28.0481336 41.4134263,27.7769773 41.4420824,27.6343805 C41.4707386,27.4917837 41.9309632,27.4203998 42.4201893,27.391812 C42.9094153,27.3633953 43.5855968,27.277803 43.6430818,27.391812 Z M44.6931751,26.1721218 C44.844224,26.2791122 44.7363319,26.4502967 44.9305377,26.535889 C45.029108,26.5793699 44.8873809,26.814064 44.4989692,26.7712678 C44.1105576,26.7284717 44.0026655,26.5786852 43.8731949,26.5572871 C43.7437244,26.535889 43.9810871,26.3219083 44.132136,26.2577141 C44.283185,26.1935199 44.5421261,26.0651314 44.6931751,26.1721218 Z M44.6284395,25.6371698 C44.4773906,25.6799659 44.2400279,25.7655582 43.9595084,25.701364 C43.6789889,25.6371698 43.4200478,25.2306064 43.4200478,25.1022179 C43.4200478,24.9738295 43.6574104,24.9738295 44.1105573,25.0808199 C44.5637043,25.1878102 44.7596364,25.6000227 44.6284395,25.6371698 Z M59.2960701,27.9907863 L64.6007374,27.9887321 L64.6007374,27.2136083 L65.9192655,27.2136083 C65.9192655,27.2136083 69.2204193,25.2126316 69.5639478,25.0044711 C69.8907315,25.230606 72.7535842,27.2136083 72.7535842,27.2136083 L74.7087622,27.2136083 L74.7087622,28.3269928 C74.527676,28.489447 73.6139592,29.30925 73.6139592,29.30925 L73.6139592,33.9902925 L57.804742,33.9902925 L57.804742,33.0982497 L57.3320882,32.3941674 L57.1470316,32.3941674 L55.4763436,32.3941674 L55.4338773,32.2356505 C55.4338773,32.2356505 55.9797251,32.3551374 56.1728952,32.1635818 C56.3660653,31.9721974 56.2447082,31.5079448 56.2447082,31.5079448 C56.2447082,31.5079448 56.7467087,31.4312541 56.9400514,31.3163893 C57.1332214,31.2015244 56.824391,30.9716235 56.824391,30.9716235 L57.17189,30.9334494 C57.5195615,30.895104 57.7512275,30.7035485 57.7893782,30.5886836 C57.828392,30.4738187 57.5580575,30.2439178 57.5580575,30.2439178 L57.9828935,30.1292242 C58.4077295,30.0143593 58.5235625,29.9376686 58.5620584,29.8226326 C58.6008996,29.7077677 58.2917239,29.4015185 58.2917239,29.4015185 L58.6392229,29.3248278 C58.9868944,29.2481371 59.2572289,28.9802332 59.2960701,28.827023 C59.334566,28.6738128 58.8712341,28.2141822 58.8712341,28.2141822 C58.8712341,28.2141822 59.0930603,28.1176341 59.2960701,27.9907863 Z M77.127273,33.9902923 L74.2977374,33.9902923 L74.2977374,29.6100214 C74.4788235,29.4475672 75.3925403,28.6277643 75.3925403,28.6277643 L75.3925403,26.5357175 L72.9686791,26.5357175 C72.8017484,26.4199968 69.58898,24.1947684 69.58898,24.1947684 L69.3985719,24.310318 C69.3985719,24.310318 65.8838782,26.4405389 65.7267872,26.5357175 L63.9169616,26.5357175 L63.9169616,27.3111837 C63.3683518,27.3113549 59.6589343,27.3128955 59.0505954,27.3130667 C59.0115816,27.3014262 58.9868959,27.2949211 58.9868959,27.2949211 C58.9868959,27.2949211 59.566406,27.1033656 59.7594035,26.7971164 C59.9525735,26.490696 59.373236,26.3374858 59.373236,26.3374858 L59.798072,26.1459303 C60.222908,25.9543747 60.2809108,25.6055005 60.0877408,25.4904645 C59.894916,25.3755997 59.726259,25.251662 59.726259,25.251662 C59.726259,25.251662 59.814299,25.2015049 60.029738,24.9204199 C60.2600229,24.6201621 60.2900601,24.4703756 60.3287286,24.2789913 C60.3672245,24.0874357 59.9140776,23.9629845 59.9140776,23.9629845 C59.9140776,23.9629845 60.7249085,23.1585882 61.1885857,22.4308826 C61.6519176,21.7031769 61.4974161,21.5116214 61.1497445,21.5116214 C60.8022456,21.5116214 60.8409141,21.3967565 60.8409141,21.3967565 L61.0340841,20.8989518 C61.2274268,20.4009758 60.8022456,20.5158407 60.5705796,20.5925314 C60.3389136,20.6692221 60.1069024,20.7212622 59.991242,20.7073962 C59.8752364,20.6935303 60.2627849,20.2056542 60.4171138,19.784369 C60.5716154,19.3630837 60.6285824,18.8690451 60.4357576,18.9455646 C60.2424149,19.0222552 60.0601204,19.0496448 59.894916,19.0604294 C59.7293663,19.0713852 60.0509711,18.6867335 60.1669767,18.112238 C60.2829823,17.5377426 60.2660649,17.0625342 59.9974566,17.2941469 C59.7816724,17.4802246 59.7053711,17.5317511 59.5702038,17.5421934 C59.4346913,17.5524645 59.5139273,17.053975 59.5522506,16.4794795 C59.5910917,15.9049841 59.3618426,15.95497 59.1942214,16.1687795 L59.1888699,16.1816184 C59.1244799,16.2776529 59.1149854,16.2985374 58.926131,16.5729463 C58.3763128,17.3710088 57.437565,18.1048771 56.896896,18.7560632 C56.0033766,19.8323007 55.3674173,20.6868541 55.2362205,21.207084 C55.1600918,21.5099095 54.8314092,21.8346467 54.4176213,22.4445773 C54.3616901,22.4077726 54.2962643,22.3855186 54.2265228,22.385861 C54.1300241,22.3862034 53.9927853,22.3627511 53.9247701,22.2953044 C53.9099242,22.2805825 53.8640053,22.2353898 53.8640053,22.0994692 C53.8640053,21.7870574 53.9132041,21.6855449 53.9648197,21.578041 C54.0195426,21.4654015 54.0872125,21.3250302 54.0872125,21.0793803 C54.0872125,20.8178103 53.9750047,20.6045143 53.8762618,20.4162113 C53.7871861,20.2467385 53.7100217,20.1003757 53.7100217,19.9310742 C53.7100217,19.1501301 53.6354466,18.3205697 53.0935692,17.54459 C52.7935428,17.1149167 52.4702117,16.8637889 52.2338848,16.6806214 C52.1472259,16.6131747 52.0429589,16.531862 52.014648,16.4930031 C52.0029093,16.3089797 51.9438708,16.1353985 51.8851775,15.9825307 C51.8397765,15.8635574 51.7924766,15.7404757 51.7924766,15.6605325 C51.7924766,15.4311452 51.6799235,15.2532844 51.5804901,15.0963081 C51.4988374,14.9675773 51.4284054,14.8563074 51.4284054,14.7385324 C51.4284054,14.5906289 51.4503291,14.5303719 51.4810567,14.4471762 C51.5186895,14.3434384 51.5659894,14.2145364 51.5659894,13.9930235 C51.5659894,13.7872597 51.4978016,13.610426 51.4378999,13.4544769 C51.3811055,13.3070869 51.3322519,13.1797256 51.3322519,13.0311374 C51.3322519,12.6302231 51.160315,12.3927901 51.0467262,12.2356427 C51.0467262,12.2356427 50.9901044,12.1512487 50.9850982,12.143203 C50.9738774,11.6563541 50.6760952,11.1475935 50.1295569,11.1438274 C49.5787028,11.1475935 49.280748,11.6563541 49.2698724,12.143203 C49.2646936,12.1512487 49.2082445,12.2356427 49.2082445,12.2356427 C49.094483,12.3927901 48.9225461,12.6302231 48.9225461,13.0311374 C48.9225461,13.1797256 48.8736926,13.3070869 48.8165529,13.4544769 C48.7566512,13.610426 48.688636,13.7872597 48.688636,13.9930235 C48.688636,14.2145364 48.7361085,14.3434384 48.7737413,14.4471762 C48.804469,14.5303719 48.8263927,14.5906289 48.8263927,14.7385324 C48.8263927,14.8563074 48.7559607,14.9675773 48.6743079,15.0963081 C48.5748745,15.2532844 48.4621489,15.4311452 48.4621489,15.6605325 C48.4621489,15.7404757 48.4150216,15.8635574 48.3694479,15.9825307 C48.3109273,16.1353985 48.2517161,16.3089797 48.24015,16.4930031 C48.2116665,16.531862 48.1077448,16.6131747 48.0209132,16.6806214 C47.7845863,16.8637889 47.4610826,17.1149167 47.1610562,17.54459 C46.6193514,18.3205697 46.5446037,19.1501301 46.5446037,19.9310742 C46.5446037,20.1003757 46.4677846,20.2467385 46.3785362,20.4162113 C46.2796207,20.6045143 46.1675855,20.8178103 46.1675855,21.0793803 C46.1675855,21.3250302 46.2352555,21.4654015 46.2896331,21.578041 C46.3415939,21.6855449 46.3906201,21.7870574 46.3906201,22.0994692 C46.3906201,22.2369304 46.3438381,22.2821232 46.3284743,22.296845 C46.2516551,22.3713103 46.0978441,22.3875729 46.019126,22.3856898 C45.9483487,22.3838068 45.8813693,22.4053761 45.824057,22.4423519 C45.4106144,21.8327636 45.0819318,21.5080265 45.0056305,21.2053722 C44.8746063,20.6851422 44.238647,19.8304176 43.344955,18.7541802 C42.804286,18.1029941 41.9159454,17.3752884 41.3751038,16.5710633 C40.7522641,15.6447835 40.7186018,16.3028171 40.6801059,16.7242735 C40.6414374,17.1455587 40.6801059,17.4136338 40.6801059,17.4136338 L40.4095988,17.2220782 C40.1392643,17.0305227 40.0964527,17.4523215 40.1392643,17.834919 C40.1777602,18.1796848 40.2164287,18.60097 40.2164287,18.60097 L39.9075983,18.3327238 C39.5987679,18.0646487 39.6372638,18.9455646 39.7530968,19.3286756 C39.8687571,19.7116155 40.1005957,20.1329008 40.1005957,20.1329008 C40.1005957,20.1329008 39.7917653,20.0945554 39.5985953,20.0945554 C39.4054252,20.0945554 39.2124278,20.1710749 39.2509237,20.4009758 C39.3080634,20.7409484 39.4054252,21.1670268 39.4054252,21.1670268 C39.4054252,21.1670268 39.1735866,21.1286815 38.9805892,21.0903361 C38.7875918,21.0519908 38.7950147,21.4790963 39.0266807,21.9003815 C39.258174,22.3216668 39.5214308,22.6607834 39.5214308,22.6607834 C39.5214308,22.6607834 39.4054252,22.7373029 39.2124278,22.7754771 C39.0194304,22.8138225 38.8647562,22.9288585 38.9805892,23.1202428 C39.0964222,23.3117984 39.1349181,23.5031827 39.8302612,24.039504 C40.5254317,24.5756541 40.9502678,24.8053838 40.9502678,24.8053838 C40.9502678,24.8053838 40.7961115,24.8820745 40.6414374,24.9969394 C40.4869358,25.1118042 40.4869358,25.2266691 40.8344348,25.5330895 C41.1821064,25.8395099 41.2207749,25.9927201 41.2207749,25.9927201 C41.2207749,25.9927201 41.0276048,26.1459303 40.8731033,26.2607951 C40.7184292,26.3758311 40.7186018,26.5672155 40.8344348,26.7204257 C40.9502678,26.8734647 41.2979393,27.1800563 41.2979393,27.1800563 L41.1049419,27.2949211 C41.092858,27.3021109 41.0804288,27.309643 41.0679996,27.3178599 C40.3976875,27.3180311 36.7987515,27.3194005 36.2568742,27.3195717 L36.2568742,26.0272993 L34.6115624,26.0272993 C34.446358,25.9173988 30.7065581,23.4278615 30.7065581,23.4278615 L30.518049,23.5468348 C30.518049,23.5468348 26.7487299,25.9256157 26.5876685,26.0272993 L24.4684946,26.0272993 L24.4684946,28.1284188 C24.4684946,28.1284188 25.7707957,29.196953 25.9801927,29.3686511 C25.9796748,29.6190941 25.9719066,32.9046397 25.9693172,33.9902923 L22.5274722,33.9902923 L22.5274722,36.4810279 C22.5274722,36.4810279 23.7930036,38.4001782 23.8964074,38.5569833 C23.89658,38.7589811 23.9321413,68.0666367 23.9321413,68.0666367 L50.1336999,87.6465575 L76.3756534,68.088206 L76.3756534,38.5383242 C76.4478116,38.4001782 77.4725278,36.4413131 77.4725278,36.4413131 L77.4725278,33.9902923 L77.127273,33.9902923 Z" id="Fill-8" fill="#FEFEFE"></path>
                            <path d="M53.3570474,29.1612742 C53.4511647,29.1841051 53.5848344,29.2013913 53.723845,29.0593507 C53.8501528,28.9301932 53.8501528,28.8078849 53.8442344,28.7059614 C53.8380272,28.6040378 53.7478074,28.6177363 53.7179266,28.6720412 C53.6877571,28.7263461 53.6457508,28.8419681 53.5794933,28.896273 C53.5135246,28.9505779 53.4472672,28.9981965 53.3629658,29.0050458 C53.2786644,29.011732 53.272746,29.1408895 53.3570474,29.1612742" id="Fill-10" fill="#FEFEFE"></path>
                            <path d="M52.2838905,30.8159578 C52.4241615,30.8159578 52.6467919,30.7991661 52.7676572,30.5292848 C52.8885224,30.2596058 52.8440575,30.1501561 52.9204577,30.0910817 C52.996858,30.0320072 53.2260589,29.9899267 53.2833591,29.6273875 C53.3406593,29.2648483 53.200694,29.0036663 53.1051937,29.3154258 C53.0096933,29.6273875 52.9329874,29.7538312 52.773922,29.8129056 C52.6148566,29.8717778 52.665892,30.0572959 52.5894917,30.2681028 C52.5130914,30.4787073 52.3856557,30.5545735 52.2710553,30.6051509 C52.1564548,30.6557284 52.1883902,30.8159578 52.2838905,30.8159578" id="Fill-12" fill="#FEFEFE"></path>
                            <path d="M55.0721094,24.8029905 C55.2879532,24.7747636 55.4826461,24.5027588 55.4931558,24.197181 C55.5036655,23.8913895 55.4516423,23.5289302 55.3784683,23.8178284 C55.3052942,24.1065128 55.3227667,24.1065128 55.2357986,24.3160762 C55.1459403,24.5322688 55.03769,24.5771752 55.0061608,24.6047606 C54.9156457,24.6840953 54.9163026,24.8235192 55.0721094,24.8029905" id="Fill-14" fill="#FEFEFE"></path>
                            <path d="M54.329025,42.727446 C54.6506262,43.0390837 54.9724049,42.6235667 55.4549841,42.311929 C56.098009,41.6888255 56.098009,41.0134385 55.9908086,39.9227064 C55.9908086,39.8188272 55.5084068,39.5591291 55.5084068,39.5591291 C55.5084068,39.5591291 55.4549841,40.4940423 55.0258276,41.1174897 C54.8116043,41.4289554 54.4362254,42.0002913 53.9002235,42.2080498 C53.6856452,42.2599894 54.1682245,42.5717991 54.329025,42.727446" id="Fill-16" fill="#FEFEFE"></path>
                            <path d="M73.4852473,66.9522149 C73.3345288,67.0654417 66.0568776,72.5335578 59.6412398,77.3538318 L59.6412398,47.0097445 L59.6075741,47.0097445 L73.3521385,36.9656228 L73.4852473,36.9656228 L73.4852473,66.9522149 Z M58.9506626,77.8726887 C54.2410966,81.4111535 50.1654807,84.4734151 49.9950807,84.601202 C49.8251986,84.4732438 45.7430223,81.4049869 41.0291402,77.8617257 L41.0291402,47.8496098 L49.9077227,54.0983226 L58.9506626,47.4898879 L58.9506626,77.8726887 Z M40.338562,77.3428709 C33.9293121,72.5253374 26.6652999,67.0654432 26.514754,66.9522165 L26.514754,36.9656228 L26.7129497,36.9656228 L40.338562,47.3245874 L40.338562,77.3428709 Z M40.0259033,40.9420919 L40.5990826,40.9420919 C40.8599483,40.7351661 40.2341124,40.4247775 40.4430121,39.545343 C40.546944,39.1314914 41.2682523,37.9433812 41.3811617,38.4588114 C41.3811617,38.4588114 42.006825,39.1832229 41.6418547,39.6486346 C41.1206413,40.3211433 40.6512213,40.9939946 41.2249185,40.9939946 C41.4854389,41.0455548 42.006825,40.9939946 42.2676906,40.9939946 L43.3626013,42.0284522 C43.5709831,42.5976693 44.7706889,42.6494008 45.5004567,42.3905723 C46.0216701,42.2355492 45.9698768,41.5111378 46.5432288,41.0455548 C46.908199,40.7351661 47.6901054,40.5799718 47.8990051,40.4765089 C48.2114915,40.3211433 48.0554209,40.4765089 48.6810842,39.9074631 C48.6810842,39.9074631 49.3271195,39.8937594 49.4629906,39.5970744 C49.6910538,39.5062874 49.7236836,39.0795887 49.7236836,39.0278573 C49.9325833,38.5107141 50.2454149,38.4588114 50.2454149,38.4588114 C50.2454149,38.4588114 50.5907037,38.7688575 50.7143171,39.0278573 C50.8135876,39.2358108 50.7666283,39.545343 50.8709055,39.5970744 C50.8709055,39.9074631 51.5038198,39.7147549 51.8095731,39.9591945 C52.0122576,40.1212407 52.0702661,40.373046 52.2263366,40.4765089 C52.5393409,40.7351661 53.1651768,40.6832634 53.3735585,40.9939946 C53.4780084,41.2007491 53.7906674,41.8734292 53.7906674,41.8734292 C53.7906674,41.8734292 54.364192,41.2526518 54.7816461,40.6317033 C55.2507209,39.9591945 55.4591027,39.0795887 55.5117592,38.7693713 C56.0326273,38.7693713 56.4564693,38.8992138 56.866845,39.2866858 C57.2563307,39.6536021 57.3659599,40.0008195 57.4407149,40.5282404 C57.512017,41.0313372 57.4232778,41.3328185 57.2842991,41.8216977 C57.1895173,42.1534984 57.1594772,42.3595677 56.9714675,42.6494008 C56.5647173,43.2748031 56.1372498,43.4771039 55.3548255,43.6840296 C54.7816461,43.7874925 54.7816461,44.0977099 54.9377166,44.4600012 C55.0423391,44.7186585 54.312226,44.666927 54.312226,44.4082698 C54.2600874,44.4082698 53.9474285,44.5634641 53.9474285,44.5634641 C53.9474285,44.5634641 53.1132108,45.3394358 52.6957567,45.4946301 C51.9658162,45.80519 50.6102125,45.3394358 50.9753554,45.4946301 C51.0796326,45.5465328 50.9228715,45.9084816 50.9753554,45.9084816 C52.0702661,46.3742359 51.652812,46.1154074 52.2263366,46.4259673 C52.6437907,46.6328931 52.7480679,46.8915503 52.5916521,47.1502075 C52.3829251,47.5123276 50.8709055,47.7708135 50.1931037,47.822545 C49.5672678,47.822545 47.7949006,47.4605962 47.5340349,47.0467446 C47.2733419,46.6846245 47.8990051,46.4775275 48.1077322,46.3742359 C48.2114915,46.270773 49.0457091,46.0638472 49.0457091,45.9602131 C49.0457091,45.7712734 49.059866,45.6321809 49.0804106,45.5323152 C47.2733419,46.1671388 46.0216701,44.5634641 45.2917296,44.2015153 C44.6139278,43.8909554 44.196819,44.4082698 43.4670511,44.0459784 C43.1542195,43.9428581 42.6328335,43.373641 42.4241064,43.1667152 C42.006825,42.7528637 42.0214997,42.1949521 41.4854389,41.8734292 C41.0503751,41.6122025 40.5497064,41.9066606 40.2341124,41.5111378 C40.0863288,41.3259666 39.9734194,41.0972862 40.0259033,40.9420919 Z M73.8305348,36.2804381 L25.8241765,36.2804381 L25.8241765,67.2927513 L49.9950796,85.4607646 L74.1758235,67.2927513 L74.1758235,36.2804381 L73.8305348,36.2804381 Z" id="Fill-18" fill="#FEFEFE"></path>
                            <path d="M4.94505485,56.4990207 C4.94505485,55.5936251 5.68303622,54.8596764 6.5934065,54.8596764 C7.50377677,54.8596764 8.24175815,55.5936251 8.24175815,56.4990207 C8.24175815,57.4044162 7.50377677,58.138365 6.5934065,58.138365 C5.68303622,58.138365 4.94505485,57.4044162 4.94505485,56.4990207" id="Fill-20" fill="#FEFEFE"></path>
                            <path d="M91.7582448,56.4990207 C91.7582448,55.5936251 92.4962262,54.8596764 93.406767,54.8596764 C94.3169668,54.8596764 95.0549481,55.5936251 95.0549481,56.4990207 C95.0549481,57.4044162 94.3169668,58.138365 93.406767,58.138365 C92.4962262,58.138365 91.7582448,57.4044162 91.7582448,56.4990207" id="Fill-22" fill="#FEFEFE"></path>
                            <path d="M11.3739346,38.6351188 C11.6262236,39.3485274 11.5531743,39.9501016 11.3897244,40.6814171 C11.1684943,41.6717086 10.6444827,42.795458 9.83920536,43.4733904 C8.98950844,44.1889951 7.86461869,44.6182566 6.74510786,44.4347942 C5.15589527,44.1741289 4.09537912,43.4010866 3.61196977,42.367717 C3.14938206,41.350396 3.26806548,39.9217206 3.50959664,38.8415562 C3.62758601,38.3126237 3.90121722,37.6737151 4.16704031,37.1878607 C4.32736703,36.9035447 4.415165,36.81553 4.75126116,36.8280311 C4.75126116,36.8280311 5.6604733,37.2172552 5.770134,37.2610091 C5.93705425,37.3277381 5.89593148,37.591782 5.82340273,37.696859 C5.56157045,38.0754403 5.40419347,37.7215234 5.00806154,37.8879235 C4.72801032,38.0056705 4.46097263,38.3420182 4.32059999,38.9711287 C4.15472083,39.7139318 4.19584359,40.4758244 4.71291462,41.0333068 C5.25063378,41.6068379 6.05417604,41.9656539 6.81694256,42.1271549 C7.56808366,42.2861218 8.21407541,42.2068917 8.93780134,41.9475779 C9.71514301,41.6646134 10.262926,41.0875346 10.4440743,40.2774958 C10.5421096,39.8386051 10.5943373,38.8912229 10.3923672,38.4947346 C10.1787718,38.0962192 11.2439728,38.2421782 11.3739346,38.6351188" id="Fill-24" fill="#FEFEFE"></path>
                            <path d="M11.972101,32.347516 C12.5989421,32.628077 12.8819987,32.8241045 13.1170854,32.4167431 C13.1946538,32.2824634 13.3533628,32.1227889 13.5447322,32.2083661 C13.7041216,32.2795065 13.7753961,32.4564008 13.7148383,32.597638 C13.4729474,33.1625866 13.2649076,33.5527282 13.0231868,34.1176769 C12.7998374,34.6389673 12.6698763,35.0285871 12.446527,35.5500514 C12.3813763,35.7020727 12.1784397,35.7784312 12.0190503,35.7069429 C11.8491143,35.6309323 11.8705476,35.3905508 11.899976,35.2494876 C11.9938746,34.7993376 11.8448616,34.5827855 10.9734079,34.2890052 L7.20232504,32.6011167 C6.73538371,32.2958566 6.41116142,32.2789847 6.13967203,32.5992034 C6.0471343,32.7082622 5.84725959,32.9077684 5.66677699,32.8268875 C5.49684096,32.7508768 5.45958772,32.5671989 5.52456826,32.4151776 C5.76645918,31.8504029 5.97432887,31.4769593 6.21604969,30.9121846 C6.43939904,30.3907203 6.61988164,29.8504707 6.83846802,29.3397905 C6.90344857,29.1877692 7.07253406,29.1350662 7.24247009,29.2110768 C7.41240612,29.2870875 7.43077758,29.5020741 7.40236985,29.6433113 C7.26594474,30.3204495 7.48912398,30.3411481 8.20101814,30.6596275 L11.972101,32.347516 Z" id="Fill-26" fill="#FEFEFE"></path>
                            <path d="M88.4112452,32.754165 C87.8013613,33.0586278 87.4749209,33.1513655 87.6248205,33.5953666 C87.6742249,33.7418127 87.6904121,33.9673535 87.5042601,34.0600912 C87.3491334,34.1376317 87.1729298,34.0789151 87.1075068,33.9414492 C86.8456462,33.3908947 86.691194,32.979015 86.4289962,32.428806 C86.1873696,31.9207347 85.9831757,31.569644 85.7410432,31.0617454 C85.6705618,30.9135724 85.7447528,30.7073735 85.8997108,30.6301784 C86.0651231,30.5476298 86.2288491,30.7185987 86.3140002,30.8322326 C86.5864835,31.1943759 86.8419367,31.2183806 87.6182444,30.7331052 L91.2863155,28.9018381 C91.8115541,28.7369135 92.0322724,28.4968663 91.9698845,28.0810146 C91.9486389,27.939404 91.9294167,27.6565281 92.1052831,27.5687986 C92.2706953,27.48625 92.4303746,27.5755338 92.5005188,27.7237068 C92.7627166,28.2740886 92.9048599,28.6749157 93.1667204,29.2249521 C93.4085157,29.7330234 93.6916218,30.2201984 93.9285272,30.7175625 C93.9993459,30.8657356 93.9295389,31.0304875 93.7641267,31.1130361 C93.5988831,31.1955847 93.4282437,31.0714164 93.3422496,30.958646 C92.9299836,30.4175898 92.7711474,30.5771608 92.078979,30.9227252 L88.4112452,32.754165 Z" id="Fill-28" fill="#FEFEFE"></path>
                            <path d="M16.2598157,25.067949 C16.8376605,25.4535292 17.0481823,25.4997176 17.4223077,25.1104153 C17.5290511,24.9995969 17.7624216,24.7537662 17.9963154,24.9845391 C18.2565461,25.2411978 18.0775939,25.56384 17.9900363,25.6873475 C17.6396318,26.1815467 17.3005643,26.5085877 16.9503342,27.0027869 C16.6267899,27.4589186 16.3686521,27.8793517 16.0452823,28.3354834 C15.9509225,28.4686347 15.7201682,28.7488105 15.369066,28.5748849 C15.0669751,28.4253224 15.1559279,28.1918425 15.2218577,28.0669815 C15.5133092,27.5135665 15.6162155,27.3453933 14.9792431,26.9205613 L11.2287457,24.2407872 C10.9477592,24.0671999 10.8106672,23.9695783 10.6221219,24.2357115 C10.1639274,24.8818418 10.0261377,24.917033 10.1750901,25.212605 C10.2504385,25.3619983 10.6439241,25.5597795 10.3707865,25.9335165 C10.1623577,26.2189373 9.8189298,26.0258934 9.76398832,25.9610942 L8.89521523,25.3398347 C8.54201999,25.0352956 9.18631788,24.507428 9.37486309,24.2414639 L12.1889135,20.5218582 C12.3978655,20.2273013 12.5333879,19.7237968 12.8513508,19.9390044 L13.839251,20.6502722 C13.9824476,20.7737797 14.0600634,21.0070904 13.9186109,21.2067327 C13.8040186,21.3681383 13.6432058,21.3979155 13.4794278,21.3337931 C13.0090241,21.1500546 12.8567577,21.2140078 12.3532147,21.9306896 C12.1791461,22.1782121 12.3043778,22.2839548 12.5590272,22.4538199 L16.2598157,25.067949 Z" id="Fill-30" fill="#FEFEFE"></path>
                            <path d="M84.0512159,25.8302456 C83.5034468,26.2542635 83.3959294,26.4373582 83.6625656,26.907536 C83.7386734,27.0417254 83.9079745,27.3358438 83.6137255,27.484619 C83.2863411,27.6500392 83.0262629,27.383548 82.9322068,27.2636012 C82.5559823,26.7836424 82.3392217,26.3656304 81.9633424,25.8858432 C81.616629,25.4427779 81.284585,25.0717837 80.9373539,24.6287184 C80.836222,24.499677 80.6325775,24.1973218 80.9066347,23.9212211 C81.142379,23.6837299 81.3429171,23.8386826 81.4445667,23.9385525 C81.895691,24.3812745 82.0280599,24.5293634 82.6313998,24.0621028 L86.3577484,21.3644153 C86.6105782,21.1540365 86.7463987,21.0553678 86.5441349,20.7969417 C86.0524543,20.1694089 86.0591849,20.0293851 85.727486,20.0788053 C85.5595656,20.103687 85.2494393,20.4122196 84.9679612,20.0417402 C84.7522361,19.7587756 85.0428609,19.4958879 85.1224203,19.4637991 L85.9856658,18.8393551 C86.3874322,18.601349 86.7082585,19.3671896 86.9108675,19.6254442 L88.1941728,21.5083858 L89.6724936,23.3420788 C89.8963299,23.6281322 90.3058624,24.0126827 90.0012586,24.245026 L89.069844,24.9120262 C88.907101,25.0086358 88.6572051,25.0100085 88.5053347,24.8161031 C88.3822851,24.6592628 88.4014415,24.4995054 88.5127556,24.3651444 C88.8318561,23.9804223 88.8151159,23.8179193 88.2685548,23.1263805 C88.0795796,22.8871733 87.9396172,22.9724574 87.6983503,23.1593273 L84.0512159,25.8302456 Z" id="Fill-32" fill="#FEFEFE"></path>
                            <path d="M20.2176083,14.5217014 C20.1367834,14.051192 20.0419396,13.621837 19.9630185,13.0325331 C19.9316924,12.7982294 20.3754504,12.4254186 20.4201031,12.3849558 C20.6824811,12.1475397 21.0573563,12.1731315 21.0867786,12.6246199 C21.1127395,13.0197372 21.2292173,14.3698795 21.285639,14.7482237 C21.285639,14.7482237 21.4554232,16.3869659 21.6373224,16.605707 C21.8193948,16.824448 23.0637864,18.23857 23.0637864,18.23857 C23.5312554,18.754038 23.6915206,18.8121384 24.0319543,18.5982391 C24.1633164,18.5157572 24.4314058,18.3507936 24.62992,18.6032537 C24.8059348,18.8266635 24.7053796,19.0512837 24.5914979,19.1541698 C24.1370094,19.5657143 23.7602304,19.8767934 23.3055688,20.2883378 C22.8858679,20.6682383 22.4978392,21.0830682 22.0783113,21.4629686 C21.9557759,21.5738089 21.6641487,21.5307524 21.5454209,21.3996807 C21.4185587,21.2599631 21.433443,20.9820842 21.5225753,20.8696876 C22.0125437,20.2513334 21.8517593,20.1264868 21.3368685,19.5586246 L20.1013035,18.2461784 L17.6156354,17.5897823 C17.3925449,17.5368695 16.3295333,17.4042415 16.0955392,17.409429 C15.9034286,17.4082186 15.7577015,17.7741127 15.4755933,17.5263215 C15.3068475,17.3784767 15.4046335,17.161119 15.5133231,17.0367911 C15.8174116,16.6885346 15.8667373,16.5830547 16.2064787,16.1907042 C16.493433,15.8590478 16.679486,15.6268192 16.8312706,15.4943641 C16.9645365,15.3781634 17.5005422,15.4334971 18.2684651,15.5739063 C19.0365611,15.7141427 20.4931398,16.1711645 20.4931398,16.1711645 L20.2176083,14.5217014 Z" id="Fill-34" fill="#FEFEFE"></path>
                            <path d="M44.7852779,5.2713831 C44.8166545,5.62040059 44.8596707,5.7998806 45.2603121,5.76285321 C45.5010343,5.74039678 45.898808,5.70182657 46.1120336,5.63514297 C46.427486,5.54720291 46.9435121,5.39943617 47.1066364,5.49800447 C47.3266097,5.63120024 47.3023181,6.32426395 47.0057592,6.50905809 C46.7312987,6.68013837 46.6359882,6.6180832 46.0455693,6.66916729 L45.3073769,6.73756512 C44.9313644,6.79584898 44.9608854,7.00138531 44.9888881,7.31560391 L45.1241784,8.66041835 C45.1855819,9.34696798 45.2662163,9.39788065 45.5413515,9.53159069 C45.67816,9.59793144 45.9096042,9.60975964 45.9440172,9.891065 C45.9785989,10.1725418 45.8487067,10.2649388 45.4979979,10.31808 C44.9065668,10.4077343 44.7832536,10.3449934 44.1879427,10.4001917 C43.6385157,10.4511044 43.334703,10.5429872 42.7851073,10.5938998 C42.624682,10.6086422 42.4161798,10.5906428 42.3638856,10.2529392 C42.3282917,10.0239179 42.5661462,9.88729369 42.6992435,9.84358079 C43.0875705,9.71587056 43.0899321,9.49730607 43.022287,8.74098722 L42.6503231,4.80271226 C42.5877387,4.10433443 42.6602759,3.6222926 42.0705317,3.59846478 C41.9195531,3.59229355 41.7775152,3.49372525 41.759634,3.29590296 C41.7431022,3.10956602 41.8741752,2.84711721 42.1322726,2.83066059 C43.1882791,2.76346272 43.7539004,2.78317638 44.8075451,2.68580804 C45.5403394,2.61792448 45.9207379,2.47015775 46.6537008,2.40244561 C46.9516093,2.37484649 47.0634515,2.67106565 47.0926351,2.9967696 L47.0845379,3.81325796 C47.0982019,3.96462458 47.055523,4.13193356 46.8837955,4.1485616 C46.5462445,4.18147484 46.5575468,3.82800035 46.4399691,3.67474807 C46.2420944,3.39961395 45.9227621,3.46424047 45.556365,3.49818225 C45.4190505,3.51069614 44.9101093,3.55920888 44.781398,3.66480553 C44.6741105,3.75703117 44.6916543,3.95485347 44.703294,4.08290654 L44.7852779,5.2713831 Z" id="Fill-36" fill="#FEFEFE"></path>
                            <path d="M73.0023782,13.3087838 C72.6062938,14.0173555 72.1841699,14.6673648 70.9234666,14.9187382 C70.0740817,15.08809 69.339129,14.8065791 68.5852224,14.4123954 C67.8837492,14.0461231 67.058101,13.5723149 66.720827,12.8805242 C66.2074761,11.828112 66.6225144,11.2577271 67.064478,10.4671337 L68.6319873,7.66366904 C68.9825468,7.03729024 69.1378983,6.79910192 68.8309152,6.49704281 C68.7278199,6.39567151 68.5042696,6.19943583 68.6039992,5.89617808 C68.683535,5.65353764 68.9935295,5.61877687 69.244005,5.77066259 C69.7757784,6.09326993 70.0131456,6.23779254 70.5652901,6.52649529 C71.0752753,6.79276621 71.4423088,6.95492605 71.9416657,7.21571744 C72.090463,7.29345828 72.1838156,7.55818808 72.0920573,7.72240275 C72.0001218,7.88661742 71.7514176,7.97994067 71.6167914,7.92291931 C71.2589692,7.77154729 71.1333772,7.86538424 70.7486297,8.55340775 L69.2944898,11.0085797 C69.058894,11.4294762 68.616399,12.0972939 68.5829196,12.5406221 C68.5386347,13.1204249 68.7586422,13.3803601 69.3855396,13.7079333 C69.9376841,13.9964648 70.3344771,14.0986923 70.9521632,13.8894427 C71.437526,13.7250568 71.7294523,13.2793313 72.0107501,12.7762419 L73.6413212,9.81318599 C73.7679761,9.58715537 73.9791266,9.19708131 73.762839,9.04416817 C73.604299,8.93492004 73.4833126,8.68269042 73.6151045,8.44655691 C73.729891,8.24124577 73.9320074,8.2157317 74.0914332,8.29895207 C74.4097532,8.46556403 74.5523507,8.59005211 74.871025,8.75666407 C75.1788939,8.91745404 75.3429252,8.95255728 75.6615996,9.11899801 C75.7891402,9.18560855 75.8729272,9.46300976 75.792683,9.60667619 C75.6778964,9.81215857 75.5390189,9.84794676 75.3647134,9.82774099 C75.0866041,9.79537751 74.8456941,9.91832447 74.7425987,10.1032586 L73.0023782,13.3087838 Z" id="Fill-38" fill="#FEFEFE"></path>
                            <path d="M82.1234156,16.4900011 C81.9979877,16.6319415 81.8054099,16.6371344 81.6093527,16.4659405 C81.4578303,16.3336935 81.4842728,16.1266683 81.5740381,15.9932097 C81.9950303,15.367114 82.006164,15.1583578 81.4275606,14.6338707 C81.0547563,14.2961564 80.4361412,14.2051068 79.9827917,14.7197273 C79.5682361,15.1902078 79.6247743,15.7415251 79.8985933,16.2002349 L80.2204262,16.7477441 C80.8618305,17.8097006 81.2022776,18.6725944 80.2954046,19.7018355 C79.8027393,20.2609422 79.1021873,20.4437337 78.3703218,20.4330016 C77.5704365,20.4101527 76.7411514,19.9902168 76.1437599,19.4690186 C75.7156351,19.0956461 75.1107632,18.4240256 74.8913949,17.9033467 C74.7313482,17.5124913 74.6212292,17.3300459 74.8790435,17.0373371 L75.8158382,16.2384896 C75.9409181,16.0963761 76.0550384,16.0240211 76.3098952,16.2821103 C76.574842,16.5502392 76.4589822,16.6525402 76.325204,16.8136944 C76.0653022,17.1263095 75.8967313,17.2014341 75.922478,17.5973093 C75.9612719,18.0546344 76.2928468,18.3617103 76.6254655,18.6464566 C77.1358751,19.0838754 77.6414137,19.0615458 78.2883849,18.5036507 C78.9659737,17.9189255 78.2629862,16.9821188 77.8724376,16.295612 C77.3658552,15.4055418 77.1960665,14.4988542 78.2142763,13.4055669 C79.2608422,12.2819874 80.8503489,12.798512 82.0265178,14.0093329 C82.3151236,14.306196 82.77404,14.8542245 82.9255624,15.2374636 C83.0167194,15.4739155 82.9497434,15.6973851 82.8011783,15.8661557 L82.1234156,16.4900011 Z" id="Fill-40" fill="#FEFEFE"></path>
                            <path d="M92.592751,42.3425676 C92.7234096,42.3145903 95.6296054,41.6619598 95.6296054,41.6619598 C95.914267,41.555059 96.1419614,41.3350401 96.1173976,41.0628661 C96.0970148,40.8625349 96.1912632,40.7214396 96.4503157,40.6872452 C96.7278346,40.6502875 96.8449047,40.7934552 96.8834054,40.9658091 C96.9605811,41.3106895 96.9734728,41.5592038 97.0508227,41.9039115 C97.1253852,42.2373938 97.1698091,42.3634642 97.24472,42.6971192 C97.2832208,42.8694731 97.1811328,43.044072 96.9837512,43.0874195 C96.7057097,43.1487278 96.5510099,43.0238662 96.4713953,42.8079921 C96.355022,42.4929887 95.9541614,42.5629319 95.5019084,42.6624067 L89.8306281,43.912922 C89.5058979,43.9842468 89.3430101,43.8431515 89.255556,43.4526785 C89.1912719,43.1653069 89.1424927,42.7839869 89.3020704,42.6478999 C89.3658318,42.5936724 93.3270524,37.7344332 93.4470841,37.5784857 C93.56729,37.4223656 93.5291377,37.2451762 93.2514446,37.3019942 C92.9735773,37.3584669 89.4998005,38.1725712 89.4998005,38.1725712 C89.2214105,38.2337067 89.0724597,38.4036428 89.1188,38.7193371 C89.1428411,38.8825379 89.0823898,39.1048018 88.82717,39.1607564 C88.6301368,39.2041039 88.3834533,39.0878773 88.3473916,38.9270943 C88.2653379,38.5594176 88.2364188,38.4305839 88.1540168,38.0629072 C88.071789,37.6950577 87.9972265,37.5042251 87.9176118,37.1481192 C87.8815501,36.9871635 88.0271909,36.7535014 88.2057576,36.6887391 C88.5236936,36.5737214 88.7247336,36.8267258 88.7775197,37.0077147 C88.8454622,37.2581286 89.0938877,37.3558764 89.4883025,37.2691814 L94.114314,36.2471471 C94.566567,36.1480177 95.0242206,36.1314386 94.930669,35.5492694 C94.901053,35.3627542 94.9756156,35.2544717 95.2308354,35.1983445 C95.4397149,35.1525792 95.6289086,35.2572349 95.6646219,35.4180179 L96.0374345,37.108571 C96.1402193,37.5682965 95.7257702,37.975694 95.6231596,38.1394129 C95.5203748,38.3033045 92.5896152,41.9681556 92.4960636,42.0667669 C92.4028605,42.1653782 92.4624408,42.3705449 92.592751,42.3425676" id="Fill-42" fill="#FEFEFE"></path>
                            <path d="M35.7299626,12.1095708 C34.5650914,12.6106299 33.6134549,12.6213681 32.4195142,9.90373319 C31.6149662,8.07200117 31.5453385,6.35873594 33.045293,5.81991991 C34.7798928,5.19693011 35.6852268,6.35405962 36.5049187,8.36782174 C37.1869219,10.0440228 37.1150314,11.5139462 35.7299626,12.1095708 M38.6844393,7.19406528 C37.4401926,4.11185056 35.1358643,4.27500218 32.8423283,5.09872736 C31.6957344,5.51076314 30.5919615,6.30383244 30.0631392,7.40328732 C29.5686085,8.40904259 29.5564237,9.54469566 29.9400723,10.6015441 C30.3366019,11.6945907 31.337674,12.8113652 32.4670351,13.1792358 C33.490388,13.517836 34.873716,13.2280773 35.8756584,12.8681739 C38.132988,12.0574385 39.727288,9.77781889 38.6844393,7.19406528" id="Fill-44" fill="#FEFEFE"></path>
                            <path d="M60.6366019,7.88772425 C60.6022619,8.01907444 60.3197603,7.9316735 60.2417764,7.9119378 L59.5304477,7.76914422 C59.4299651,7.7439356 59.1838336,7.72900944 59.2240943,7.57576755 C59.2440554,7.49898076 59.3675441,7.34325118 59.4071282,7.28321485 C59.4071282,7.28321485 60.0622949,6.35829059 60.1270841,6.26127056 C60.1915351,6.16441638 60.3980826,6.17784992 60.4192279,6.26624594 C60.4403733,6.35464197 60.6071676,7.58870355 60.6071676,7.58870355 C60.6098742,7.62436049 60.6508115,7.83282916 60.6366019,7.88772425 M63.212779,10.669794 C63.1490047,10.5024552 63.1029925,10.2225068 63.0786331,10.0414028 L62.2350192,4.14026349 C62.1808872,3.7999471 62.0546919,3.64786614 61.6859175,3.55548981 C61.2389899,3.44370948 61.1479804,3.46261595 60.8972815,3.78502095 C60.8972815,3.78502095 57.3213535,8.69191229 57.1080395,8.91845819 C56.8630921,9.17236872 56.7524597,9.36856476 56.4934718,9.384486 C56.3420713,9.39393923 56.0869741,9.36292599 56.0470518,9.67073653 C56.0096668,9.96080152 56.319911,10.0133748 56.4875511,10.0553339 C56.833827,10.1419056 56.8730727,10.1203456 57.2193485,10.2070831 C57.5659626,10.2938207 57.5615644,10.3070884 57.9081786,10.3936601 C58.0644848,10.4327998 58.3282093,10.4505453 58.4097456,10.1261502 C58.50583,9.74619655 57.9508075,9.77770733 57.9961431,9.47868664 C58.0277765,9.27054966 58.1889884,9.05494961 58.36644,8.78428862 C58.5917646,8.4671907 58.7724302,8.45757162 59.163365,8.55542087 L60.3378608,8.81082401 C60.7402986,8.91149265 60.7125559,8.8811428 60.7578915,9.30089952 C60.7578915,9.30089952 60.8883159,9.93211013 60.8511001,10.074572 C60.7485876,10.4687884 60.1034015,10.0080677 60.0518069,10.5570186 C60.0108695,10.9917015 60.3530854,11.0114372 60.50973,11.050411 C61.0459754,11.1845806 61.3704293,11.2222277 61.9291733,11.362036 C62.3761008,11.4738164 62.6235857,11.5353453 63.0930119,11.6525985 C63.2493181,11.6917383 63.560239,11.7758223 63.7050421,11.4222382 C63.8752197,11.0067935 63.2982061,10.8897061 63.212779,10.669794" id="Fill-46" fill="#FEFEFE"></path>
                            <path d="M50.7060816,95.2943288 C50.3586274,95.3108806 49.8036288,95.2405353 49.4561747,95.2253628 C49.1356674,95.2103627 48.3388606,95.2448457 48.0181749,95.230018 C47.9246639,95.22588 47.8056336,95.199673 47.802243,95.0105338 C47.7992092,94.8822571 47.9475063,94.8260498 48.0276331,94.8122566 C48.2612322,94.7722563 48.2801486,94.6526004 48.3004926,94.2331148 L48.3956097,92.0465486 C48.4145261,91.6589598 48.494296,91.4005098 48.1561215,91.3417164 C48.0693918,91.3267163 47.9956895,91.2615434 48.0006862,91.1520599 C48.0060399,91.0487834 48.1020493,90.9151618 48.2523094,90.9258515 C48.8661986,90.970507 49.1906319,91.0249901 49.8050564,91.0529213 C50.2331728,91.0725766 50.4639166,91.0210246 50.8914975,91.0399902 C51.0658492,91.0480937 51.1065372,91.2189569 51.0977929,91.3994754 L51.0292657,91.8465473 C51.0249827,91.9305134 50.9873285,92.0187898 50.8870361,92.0148243 C50.6896636,92.0067208 50.7242841,91.8137884 50.6684273,91.7206844 C50.575987,91.5548212 50.3868235,91.5655109 50.1732115,91.5556833 C50.0927278,91.5524074 49.7955983,91.5396487 49.7135084,91.5874076 C49.644089,91.6296493 49.6389138,91.7394776 49.6353446,91.8103401 L49.5893029,92.4677583 C49.5798448,92.6615527 49.5907306,92.7632775 49.8246866,92.7739672 C49.9647747,92.7801742 50.1969462,92.7900018 50.3254346,92.769312 C50.5140628,92.746036 50.8227919,92.704484 50.9093431,92.771381 C51.0256966,92.8613816 50.9569909,93.2391427 50.771575,93.3177639 C50.5997217,93.3900058 50.5499324,93.3487986 50.2055121,93.3310399 L49.7747189,93.3117294 C49.5537902,93.3146605 49.554504,93.4294888 49.5457596,93.6038003 L49.5182774,94.3513915 C49.499361,94.7320837 49.6283848,94.6867385 49.7729343,94.6851868 C49.9267635,94.6832902 50.3714763,94.7167387 50.4728394,94.6838075 C50.7251764,94.6012207 50.6778855,94.2729427 50.9427144,94.2924256 C51.0651354,94.301736 51.0421145,94.44053 51.0139185,94.7584631 C50.9850086,95.0762239 50.9097001,95.2843287 50.7060816,95.2943288" id="Fill-48" fill="#FEFEFE"></path>
                            <path d="M20.0416601,80.9855944 C19.9107626,81.1287471 19.8539029,81.2136681 20.0195003,81.3679125 C20.1191335,81.4601125 20.2843874,81.6124505 20.3922661,81.6767479 C20.5465259,81.7762269 20.8009343,81.9368837 20.8222352,82.0420818 C20.8504074,82.183848 20.5582071,82.4325454 20.371137,82.3772601 C20.198153,82.3261341 20.1876744,82.2632232 19.9447753,82.0351495 L19.6390042,81.7514438 C19.4739222,81.6157434 19.4010869,81.7046505 19.2834165,81.8341118 L18.7849066,82.3926845 C18.5275779,82.6748304 18.5370259,82.7276894 18.5859836,82.8926789 C18.6102048,82.9748271 18.6926599,83.0760391 18.5907935,83.1956218 C18.4887553,83.3146846 18.4020056,83.2951008 18.248433,83.1680658 C17.9895582,82.9536835 17.9689445,82.8791609 17.7222662,82.6502206 C17.4949993,82.4391311 17.3429727,82.3464112 17.1157057,82.1349751 C17.0492263,82.0732773 16.9782805,81.9791709 17.0962944,81.8315122 C17.1765164,81.7309934 17.3216718,81.779693 17.3896972,81.8192073 C17.5881049,81.9339374 17.6781184,81.8535224 17.9615579,81.5426073 L19.4299462,79.9164555 C19.6917412,79.6296303 19.9160878,79.4798919 19.7039377,79.2240889 C19.6498265,79.158405 19.6367711,79.0620456 19.7106371,78.9811106 C19.7803804,78.9045084 19.9370452,78.8613546 20.0408012,78.9634332 C20.4652733,79.3802396 20.6700368,79.624431 21.1060183,80.0292792 C21.4093844,80.3105586 21.6127737,80.4150635 21.9157963,80.6968628 C22.039479,80.8108996 21.9604595,80.9682636 21.8383228,81.1022309 L21.5018029,81.4037873 C21.4452868,81.4658317 21.360942,81.5101986 21.2896527,81.4446881 C21.1491354,81.31592 21.2977264,81.1887117 21.3161071,81.0821271 C21.3540708,80.8961673 21.2075412,80.7869831 21.0558581,80.6462568 C20.9989984,80.5933977 20.7878789,80.3984259 20.6961476,80.3836947 C20.6181588,80.3734695 20.544121,80.4547511 20.4961939,80.5074368 L20.0416601,80.9855944 Z" id="Fill-50" fill="#FEFEFE"></path>
                            <path d="M32.0699031,90.0052595 C31.8694881,90.3878936 31.6542913,90.7392348 30.9854965,90.8908977 C30.5344769,90.9930548 30.1388035,90.8534787 29.7305826,90.6547937 C29.3507223,90.4698512 28.9027966,90.229608 28.7121789,89.8670079 C28.4222132,89.3149949 28.6351756,89.0058743 28.8587947,88.5790328 L29.6523761,87.0665437 C29.8295869,86.7286137 29.9091685,86.5997996 29.7405518,86.4436664 C29.6840024,86.391346 29.561794,86.2900167 29.610093,86.1274262 C29.6491103,85.9972875 29.8139456,85.9741076 29.9497327,86.0515948 C30.2383234,86.2153443 30.3674072,86.2888577 30.6661389,86.43456 C30.942354,86.5688379 31.1407064,86.6496364 31.4110776,86.7814308 C31.4915186,86.8206711 31.5451459,86.9595849 31.4990814,87.0484965 C31.4523294,87.1372424 31.321183,87.1905562 31.2484767,87.162078 C31.0554527,87.0865777 30.9897936,87.1384014 30.7948789,87.5096111 L30.0568155,88.8355019 C29.9375291,89.0626651 29.7115036,89.4234438 29.7003313,89.6597133 C29.6857213,89.9685028 29.8070703,90.1037742 30.1467101,90.2688482 C30.4454418,90.4145505 30.6585761,90.4632283 30.9849809,90.3433551 C31.2416014,90.2491453 31.3904517,90.0080742 31.5327704,89.7363726 L32.3572906,88.1379522 C32.4215746,88.0160921 32.5281418,87.8056517 32.4104023,87.7275022 C32.3241173,87.6717049 32.2555362,87.5390827 32.3227422,87.4120899 C32.3806666,87.3009919 32.4880932,87.284766 32.5743782,87.3266554 C32.7469482,87.4107653 32.8248109,87.4748412 32.997209,87.5587856 C33.1639351,87.6399153 33.2519389,87.6561412 33.4246808,87.7400856 C33.4932619,87.7735309 33.5424203,87.9200611 33.5016841,87.9977138 C33.4435878,88.1084806 33.370194,88.1296737 33.2770337,88.1212296 C33.1281835,88.1079839 33.0015061,88.1766958 32.949082,88.2767005 L32.0699031,90.0052595 Z" id="Fill-52" fill="#FEFEFE"></path>
                            <path d="M37.9910782,91.6728802 C38.0133846,91.6008315 38.4940194,89.9888767 38.4940194,89.9888767 C38.5205083,89.8189709 38.4767667,89.6445844 38.3389197,89.5795255 C38.2369721,89.5323892 38.1949732,89.4461817 38.2493453,89.3092534 C38.3073769,89.1626469 38.4084531,89.1456204 38.50221,89.1755511 C38.689201,89.2354124 38.8120608,89.2999336 38.9994003,89.359795 C39.1801176,89.4178641 39.2533107,89.4318437 39.4342022,89.4897335 C39.5276106,89.5198434 39.5838995,89.6194928 39.5509626,89.7282828 C39.5044327,89.882596 39.4019624,89.923101 39.2763142,89.900877 C39.0924601,89.8686164 39.0164787,90.0853001 38.9406716,90.335499 L37.991601,93.4748141 C37.9372289,93.6542189 37.824651,93.6943654 37.612391,93.6262597 C37.4569428,93.5762558 37.2598442,93.4920197 37.2380605,93.3751647 C37.2293471,93.3278491 35.9730397,90.0046486 35.9306922,89.9014147 C35.8883448,89.79836 35.792671,89.766637 35.7438755,89.919158 C35.6950801,90.0711413 35.1372441,92.008032 35.1372441,92.008032 C35.0901914,92.1619868 35.131319,92.2835017 35.2958292,92.3499944 C35.3812211,92.3847642 35.4716669,92.4774238 35.4291452,92.6186535 C35.3956855,92.7278019 35.2724771,92.8158017 35.1849939,92.7878425 C34.9856298,92.7238589 34.9159221,92.7012765 34.7160352,92.6374722 C34.5164969,92.5731302 34.404616,92.556283 34.2111771,92.4939125 C34.1236939,92.4659533 34.0508493,92.3279497 34.0686248,92.2218481 C34.1001675,92.0333028 34.2768766,92.006419 34.3784756,92.0322275 C34.5175425,92.0698648 34.6327345,91.9752337 34.6989568,91.7574747 L35.472364,89.196162 C35.5479969,88.9459631 35.6652801,88.7165544 35.3590889,88.5971902 C35.2614981,88.5588359 35.2296068,88.4914471 35.2724771,88.3503966 C35.3078538,88.2346169 35.409627,88.1715294 35.496936,88.1996679 L36.4128954,88.496107 C36.6626233,88.5765792 36.7455755,88.8956008 36.7961136,88.9923826 C36.8468259,89.0891644 37.8100124,91.5682125 37.8319703,91.6422326 C37.8539282,91.7157151 37.968946,91.7449289 37.9910782,91.6728802" id="Fill-54" fill="#FEFEFE"></path>
                            <path d="M67.5911129,91.0019545 C67.6376594,91.1290965 67.6901596,91.2494433 67.8350312,91.2419328 C67.9822482,91.2340646 68.1570683,91.1528797 68.2813728,91.116579 C68.4787446,91.0581044 68.6052141,91.103525 68.6613225,91.2560597 C68.7053433,91.3769429 68.6883845,91.4715395 68.490291,91.5706065 C68.3198008,91.6555467 67.3874266,91.9811804 67.1696682,92.0595042 C67.0029666,92.119767 66.2867272,92.4593489 66.1393298,92.5126376 C66.0364944,92.5496537 65.816571,92.6403161 65.7168027,92.4337774 C65.6724211,92.3407903 65.6904624,92.1773475 65.8053854,92.1076072 C65.9755148,92.0040696 66.0557986,91.9584701 66.1914691,91.8787158 C66.3585315,91.7807217 66.4180678,91.6900592 66.3621398,91.5373457 L65.496338,89.1330921 C65.4398688,88.9793057 65.3556159,88.9052736 65.2405124,88.9855644 C65.1847648,89.0238322 64.7580882,89.4172393 64.7580882,89.4172393 C64.6738353,89.5080805 64.4761027,89.6083993 64.3555869,89.3693151 C64.2260504,89.1112758 64.2964114,88.9236922 64.4064633,88.8480508 C64.8003048,88.5900115 65.3038374,88.3308993 65.7534265,88.0111666 C65.9984273,87.837531 66.2273713,87.6655049 66.2661601,87.6517356 C66.3877584,87.6079244 66.4306967,87.8543403 66.4606453,87.9371346 L67.5911129,91.0019545 Z" id="Fill-56" fill="#FEFEFE"></path>
                            <path d="M76.5568579,83.9442987 C76.6469963,83.9274043 77.335704,83.6816965 77.7804227,84.262505 C78.1236,84.7109462 78.0783499,85.3544118 77.7878437,85.9570355 C77.5272027,86.496838 77.2412216,86.8093035 76.2868049,87.0569795 C75.9778367,87.1371872 75.5101309,87.1199647 75.4804468,86.8808179 C75.4542017,86.6721795 75.4210785,86.3352745 75.4145625,86.1369697 C75.4085895,85.9371886 75.8399142,86.0584023 76.04535,86.0926832 C76.2846329,86.1327051 76.7382206,86.0957997 76.9981377,85.9444057 C77.3016758,85.768244 77.3769721,85.479234 77.2017635,85.2410714 C76.8998543,84.8310117 76.5070827,84.9671515 76.2344957,85.108048 C76.0323179,85.2120391 75.8826303,85.3145541 75.8600052,85.3283321 C75.809506,85.3604807 75.6581894,85.2256531 75.6228943,85.1798905 C75.552847,85.0883651 75.538729,84.8151014 75.5818072,84.7352218 C75.809868,84.3130244 75.8448012,84.0417289 75.6589135,83.8393235 C75.4446086,83.6062456 75.1644195,83.7528829 75.017628,83.9110019 C74.8847734,84.0538667 74.8628724,84.1621224 74.8087531,84.3697766 C74.7906531,84.4385026 74.6292004,84.5710339 74.4831329,84.6637074 C74.3718174,84.7340736 74.2954351,84.5518431 74.2371529,84.4512965 C74.1515396,84.3031829 74.1557026,84.015157 74.248737,83.7532109 C74.3593284,83.4418936 74.6605136,83.1922493 74.9530107,83.0083786 C75.1495775,82.8848686 75.8848023,82.4839943 76.3273491,82.9439172 C76.7452797,83.3790725 76.5012907,83.7077763 76.4692536,83.8160321 C76.4370355,83.9242878 76.4663576,83.9610292 76.5568579,83.9442987" id="Fill-58" fill="#FEFEFE"></path>
                            <path d="M80.6201637,81.0626195 C80.4188493,81.2963046 79.9723858,81.1878906 79.7235027,81.0556784 C79.469749,80.9208219 79.0861151,80.5787228 79.1909935,80.2154698 C79.2807732,79.903449 79.8649098,79.6157221 80.5349298,80.2850465 C80.8427461,80.5924399 80.7958268,80.8590127 80.6201637,81.0626195 M81.274598,79.5036723 C80.67033,78.8221183 79.7028842,78.6330549 79.1060842,79.4013731 C78.3998601,80.3109931 78.4354149,81.2202825 78.9661382,81.8182122 C79.3733129,82.2776496 80.2186713,82.2619494 80.6877015,81.8304419 C80.7925798,81.7339269 81.0835116,81.2625904 81.1240992,81.5004071 C81.1646868,81.7385544 81.0700366,82.4368001 80.7831635,82.9537498 C80.740303,83.0269623 80.6560431,83.1462839 80.7260161,83.2252807 C80.775533,83.280975 80.8690468,83.2945268 80.9864261,83.2418072 C81.144393,83.1707431 81.7186263,82.9170609 81.8460713,81.7598736 C81.929357,81.0041156 81.7848652,80.0789606 81.274598,79.5036723" id="Fill-60" fill="#FEFEFE"></path>
                            <path d="M25.3906186,85.8979892 C24.9468282,86.79597 24.3323619,87.2966174 23.6278488,86.9190974 C23.035192,86.6020798 22.7110235,86.1990852 23.4011621,84.7058117 C23.8662663,83.6990329 24.5307954,83.0496067 25.2510047,83.496828 C26.0840617,84.013397 25.9237949,84.8188554 25.3906186,85.8979892 M25.4725694,83.1492054 C24.9217142,82.8075977 24.2324017,82.6218451 23.6134743,82.7934451 C23.0434532,82.9457622 22.5831404,83.3512334 22.287886,83.897169 C21.981892,84.4620336 21.8698705,85.294205 22.1018443,85.9103727 C22.3096955,86.4704609 22.8909518,86.9576632 23.3720828,87.2561057 C24.4562795,87.9285299 25.9072725,87.7862965 26.5941067,86.4057128 C27.4139459,84.7592377 26.5739495,83.8322441 25.4725694,83.1492054" id="Fill-62" fill="#FEFEFE"></path>
                            <path d="M44.3325649,92.7444497 C44.2716345,93.1206363 44.1666793,93.4918643 43.884216,93.7702027 C43.6072117,94.0558137 43.1107877,94.210189 42.4849307,94.1174646 C42.2220144,94.078127 42.2228949,94.0096994 42.260404,93.7624344 L42.7214321,91.3701124 C42.801029,91.0559074 42.8656574,91.0722705 43.3166478,91.1364007 C44.2445152,91.2692891 44.4597086,91.9621601 44.3325649,92.7444497 M45.0433018,91.2268111 C44.5727644,90.8466577 43.8835115,90.7121165 43.2796669,90.6402179 C42.7767272,90.5802198 42.2033478,90.4950985 41.6572637,90.4066715 C41.3719828,90.3608878 41.2360341,90.358078 41.2150783,90.5028668 C41.18972,90.6782332 41.2724867,90.7114553 41.3647627,90.732777 C41.6061949,90.7883124 41.569038,90.9623566 41.5200823,91.2621819 L41.033696,93.7473936 C41.0083377,93.9229253 40.9477595,93.9409413 40.8396345,93.971023 C40.7545785,93.994328 40.6846671,94.012344 40.6628308,94.1515132 C40.6355354,94.3252268 40.77483,94.3901834 40.85654,94.401588 C40.975231,94.4187776 41.104664,94.4133232 41.2175437,94.4290252 C41.7439046,94.5042295 42.5474459,94.6529851 43.0739829,94.7281894 C44.2582509,94.8976056 45.3777144,94.0797799 45.5742413,92.8680822 C45.6733852,92.2563658 45.5360277,91.6284515 45.0433018,91.2268111" id="Fill-64" fill="#FEFEFE"></path>
                            <path d="M56.1909147,94.0365517 C55.9761532,94.3855103 55.5115005,94.6442419 54.8610591,94.6754144 C54.5874463,94.6889225 54.5727788,94.6179185 54.5548518,94.3571087 L54.4795223,91.8106632 C54.4891196,91.4724417 54.557387,91.4762517 55.0262045,91.4507942 C55.9897342,91.3991864 56.362398,92.0662775 56.4105655,92.8937338 C56.434287,93.2923952 56.4123763,93.6940007 56.1909147,94.0365517 M57.6880886,92.7697365 C57.6502428,92.1222148 57.3701112,91.5063851 56.7839534,91.1941407 C56.2247766,90.8993876 55.5008166,90.9011194 54.8769941,90.9494367 C54.357474,90.9897878 53.7611757,91.0183625 53.1918584,91.0384515 C52.8939809,91.0490155 52.7362598,91.0969865 52.7478489,91.2499048 C52.7617921,91.4348615 52.8137622,91.4405765 52.961524,91.4712294 C53.211234,91.5235299 53.2278935,91.6258796 53.2465448,91.9433194 L53.3169851,94.5896899 C53.3311094,94.774993 53.2746122,94.8052996 53.1723017,94.8582928 C53.092083,94.8995098 53.0256265,94.9320677 53.0350427,95.0792711 C53.0468129,95.2631887 53.2016368,95.3012884 53.2862014,95.2964394 C53.4096983,95.2900317 53.5388088,95.2585128 53.6557868,95.251932 C54.2026501,95.2224913 55.0446747,95.2121005 55.5909947,95.182833 C56.8208938,95.1171976 57.7634181,94.0519646 57.6880886,92.7697365" id="Fill-66" fill="#FEFEFE"></path>
                            <path d="M71.9007842,88.8932742 C71.5518122,89.1066508 71.1664925,89.1172369 70.9548909,88.7920444 C70.8668373,88.6562443 70.8594995,88.4994373 70.875199,88.336014 C70.8821955,88.2903613 70.9635938,88.0902174 71.0072793,88.0632559 C71.0682001,88.026039 71.2675152,87.9623569 71.336115,87.9557405 C71.6364528,87.919847 71.9410567,87.9286136 72.1175052,88.1995522 C72.2717696,88.4364168 72.1320101,88.7518502 71.9007842,88.8932742 M70.0793038,86.8772792 C69.9275991,86.6448806 70.0523417,86.3673257 70.2750353,86.2315255 C70.5890248,86.0391558 70.9171779,86.1875269 71.0992577,86.466736 C71.1734889,86.5808677 71.1932839,86.7049238 71.181168,86.8362579 C71.1731476,86.8706628 71.1728063,86.9361645 71.1378238,86.9573367 C71.1205885,86.9677574 71.074514,86.9725543 71.054207,86.9790052 C70.7695687,87.0289585 70.2692333,87.1692246 70.0793038,86.8772792 M72.9546967,87.360271 C72.6983857,86.9330217 72.3323491,86.7709216 71.8384982,86.8089655 C71.8098296,86.8114466 71.7197283,86.8195516 71.69908,86.7877933 C71.682186,86.761328 71.7171686,86.6916911 71.7291138,86.6764736 C71.918702,86.4329927 71.8895215,86.081004 71.7651202,85.8788752 C71.5898663,85.5945385 71.1867994,85.4355813 70.8625711,85.4640315 C70.5719602,85.4860308 70.2373224,85.6110794 70.0173591,85.7943516 C69.6924483,86.0642978 69.4561029,86.362198 69.3180499,86.7126979 C69.1861402,87.0375596 69.1960377,87.3706918 69.4008135,87.6588328 C69.6086609,87.9519362 69.8956882,88.1413285 70.3226457,88.094518 C70.3460242,88.0948488 70.4030202,88.0960067 70.4163306,88.1171789 C70.4339072,88.1434788 70.4132589,88.1868158 70.3949998,88.2055069 C70.2769124,88.3292322 70.1750365,88.4991065 70.156948,88.6985888 C70.1409072,88.8768988 70.1310097,89.1934901 70.272305,89.410671 C70.6956788,90.0608907 71.5081267,89.846687 72.0480521,89.5165323 C72.3697206,89.3195311 72.7567468,88.872929 72.9050386,88.5383082 C73.0586204,88.2003793 73.1756839,87.7294621 72.9546967,87.360271" id="Fill-68" fill="#FEFEFE"></path>
                        </g>
                    </g>
                </g>
            </g>
        </g>
    </g>
</svg>