<?xml version="1.0" encoding="UTF-8"?>
<svg width="13px" height="24px" viewBox="0 0 13 24" version="1.1" xmlns="http://www.w3.org/2000/svg" xmlns:xlink="http://www.w3.org/1999/xlink">
    <!-- Generator: sketchtool 52.6 (67491) - http://www.bohemiancoding.com/sketch -->
    <title>E4039089-CFA1-46CA-8532-4C0B2395517D</title>
    <desc>Created with sketchtool.</desc>
    <g id="UI" stroke="none" stroke-width="1" fill="none" fill-rule="evenodd" opacity="0.5">
        <g id="Desktop-HD---1440" transform="translate(-1039.000000, -4495.000000)">
            <g id="footer" transform="translate(0.000000, 4430.000000)">
                <g id="footer-primary">
                    <g transform="translate(121.000000, 62.606796)">
                        <g id="social" transform="translate(912.000000, 2.000000)">
                            <g id="icon-/-social-/-fb">
                                <g id="logo-facebook.2.3.1">
                                    <g id="Filled_Icons" transform="translate(6.000000, 0.000000)" fill="#FFFFFF">
                                        <path d="M12.768,7.465 L8.5,7.465 L8.5,5.56 C8.5,4.664 9.094,4.455 9.512,4.455 C9.93,4.455 12.5,4.455 12.5,4.455 L12.5,0.513 L8.171,0.5 C4.244,0.5 3.5,3.438 3.5,5.32 L3.5,7.464 L0.5,7.464 L0.5,11.464 L3.5,11.464 C3.5,16.676 3.5,23.464 3.5,23.464 L8.5,23.464 C8.5,23.464 8.5,16.614 8.5,11.464 L12.351,11.464 L12.768,7.465 Z" id="Path"></path>
                                    </g>
                                    <g id="Frames-24px">
                                        <rect id="Rectangle" x="0" y="0" width="24" height="24"></rect>
                                    </g>
                                </g>
                            </g>
                        </g>
                    </g>
                </g>
            </g>
        </g>
    </g>
</svg>