<?xml version="1.0" encoding="UTF-8"?>
<svg width="16px" height="16px" viewBox="0 0 16 16" version="1.1" xmlns="http://www.w3.org/2000/svg" xmlns:xlink="http://www.w3.org/1999/xlink">
    <!-- Generator: sketchtool 52.5 (67469) - http://www.bohemiancoding.com/sketch -->
    <title>BC34019A-3ABE-4C94-9D29-B6429F77F59A</title>
    <desc>Created with sketchtool.</desc>
    <g id="UI" stroke="none" stroke-width="1" fill="none" fill-rule="evenodd" opacity="0.597214472">
        <g id="iPhone-SE" transform="translate(-151.000000, -12.000000)" fill="#E2E2E2" fill-rule="nonzero">
            <g id="nav">
                <g id="super-nav-mobile">
                    <g id="super-nav">
                        <g id="nav-items" transform="translate(151.000000, 10.000000)">
                            <g id="311">
                                <g id="icon-/-info" transform="translate(0.000000, 2.000000)">
                                    <g id="file-line-graph-information.2.3.1" transform="translate(0.615385, 0.615385)">
                                        <g id="Filled_Icons">
                                            <g id="Group">
                                                <path d="M7.38461538,0 C3.31285207,0 0,3.31285207 0,7.38461538 C0,11.4563787 3.31285207,14.7692308 7.38461538,14.7692308 C11.4563787,14.7692308 14.7692308,11.4563787 14.7692308,7.38461538 C14.7692308,3.31285207 11.4563787,0 7.38461538,0 Z M7.95266291,11.3609465 C7.95266291,11.6745086 7.6981777,11.9289938 7.38461557,11.9289938 C7.07105344,11.9289938 6.81656823,11.6745086 6.81656823,11.3609465 L6.81656823,6.81656782 C6.81656823,6.50300569 7.07105344,6.24852048 7.38461557,6.24852048 C7.6981777,6.24852048 7.95266291,6.50300569 7.95266291,6.81656782 L7.95266291,11.3609465 Z M7.38461568,5.11242617 C6.91427247,5.11242617 6.53254465,4.73069835 6.53254465,4.26035514 C6.53254465,3.79001193 6.91427247,3.40828411 7.38461568,3.40828411 C7.85495889,3.40828411 8.23668671,3.79001193 8.23668671,4.26035514 C8.23668671,4.73069835 7.85495889,5.11242617 7.38461568,5.11242617 Z" id="Shape"></path>
                                            </g>
                                        </g>
                                    </g>
                                </g>
                            </g>
                        </g>
                    </g>
                </g>
            </g>
        </g>
    </g>
</svg>