<?xml version="1.0" encoding="UTF-8"?>
<svg width="25px" height="25px" viewBox="0 0 25 25" version="1.1" xmlns="http://www.w3.org/2000/svg" xmlns:xlink="http://www.w3.org/1999/xlink">
    <!-- Generator: sketchtool 52.6 (67491) - http://www.bohemiancoding.com/sketch -->
    <title>61BCFE45-51C1-4484-A9A2-FD065804136C</title>
    <desc>Created with sketchtool.</desc>
    <defs>
        <polygon id="path-1" points="0 0.00753273294 23.9924286 0.00753273294 23.9924286 23.8744989 0 23.8744989"></polygon>
    </defs>
    <g id="UI" stroke="none" stroke-width="1" fill="none" fill-rule="evenodd" opacity="0.5">
        <g id="iPhone-SE---parent-landing" transform="translate(-175.000000, -3493.000000)">
            <g id="footer" transform="translate(0.000000, 3165.000000)">
                <g id="social" transform="translate(26.000000, 307.420784)">
                    <g id="icon-/-social-/-insta" transform="translate(148.480000, 20.892675)">
                        <g id="insta" transform="translate(0.800000, 0.000000)">
                            <g id="Group-3">
                                <mask id="mask-2" fill="white">
                                    <use xlink:href="#path-1"></use>
                                </mask>
                                <g id="Clip-2"></g>
                                <path d="M11.9962381,0.00753273294 C8.7382381,0.00753273294 8.32971429,0.0212716794 7.05019048,0.0793542601 C5.77333333,0.137294714 4.90128571,0.339067724 4.1382381,0.634123444 C3.34938095,0.93908068 2.68038095,1.34717477 2.01342857,2.01067113 C1.34652381,2.67421487 0.936333333,3.33979576 0.629809524,4.12462124 C0.333238095,4.8837691 0.130428571,5.75135988 0.0721904762,7.0216913 C0.0138095238,8.29467575 0,8.70111169 0,11.9424608 C0,15.1837625 0.0138095238,15.5901985 0.0721904762,16.8631829 C0.130428571,18.1335143 0.333238095,19.0011051 0.629809524,19.760253 C0.936333333,20.5450785 1.34652381,21.2106593 2.01342857,21.8742031 C2.68038095,22.5376994 3.34938095,22.9457935 4.1382381,23.2507981 C4.90128571,23.5458065 5.77333333,23.7475795 7.05019048,23.80552 C8.32971429,23.8636025 8.7382381,23.8773415 11.9962381,23.8773415 C15.2541905,23.8773415 15.6627143,23.8636025 16.9422381,23.80552 C18.2190952,23.7475795 19.0911429,23.5458065 19.8541905,23.2507981 C20.6430476,22.9457935 21.3120476,22.5376994 21.979,21.8742031 C22.6459048,21.2106593 23.0560952,20.5450785 23.3626667,19.760253 C23.6591905,19.0011051 23.862,18.1335143 23.9202381,16.8631829 C23.978619,15.5901985 23.9924286,15.1837625 23.9924286,11.9424608 C23.9924286,8.70111169 23.978619,8.29467575 23.9202381,7.0216913 C23.862,5.75135988 23.6591905,4.8837691 23.3626667,4.12462124 C23.0560952,3.33979576 22.6459048,2.67421487 21.979,2.01067113 C21.3120476,1.34717477 20.6430476,0.93908068 19.8541905,0.634123444 C19.0911429,0.339067724 18.2190952,0.137294714 16.9422381,0.0793542601 C15.6627143,0.0212716794 15.2541905,0.00753273294 11.9962381,0.00753273294 Z M11.9962381,2.15796212 C15.1993333,2.15796212 15.5787619,2.17013767 16.8437143,2.22755699 C18.0133333,2.28061775 18.6485238,2.47504753 19.0712381,2.63849362 C19.6311905,2.85500047 20.0308095,3.11362429 20.4505714,3.53128826 C20.870381,3.94890486 21.1303333,4.34648155 21.3479524,4.90357214 C21.5122381,5.32412603 21.7076667,5.95607019 21.761,7.11971158 C21.8187143,8.37819908 21.8309524,8.75568847 21.8309524,11.9424608 C21.8309524,15.1291857 21.8187143,15.5066751 21.761,16.7651626 C21.7076667,17.928804 21.5122381,18.5607482 21.3479524,18.9813021 C21.1303333,19.5383927 20.870381,19.9359694 20.4505714,20.353586 C20.0308095,20.7712499 19.6311905,21.0298737 19.0712381,21.2463806 C18.6485238,21.4098267 18.0133333,21.6042565 16.8437143,21.6573172 C15.5789524,21.7147365 15.1995714,21.7269121 11.9962381,21.7269121 C8.79285714,21.7269121 8.41352381,21.7147365 7.14871429,21.6573172 C5.97909524,21.6042565 5.34390476,21.4098267 4.92119048,21.2463806 C4.3612381,21.0298737 3.96161905,20.7712499 3.54185714,20.353586 C3.12209524,19.9359694 2.86209524,19.5383927 2.64447619,18.9813021 C2.48019048,18.5607482 2.2847619,17.928804 2.23142857,16.7651626 C2.17371429,15.5066751 2.16147619,15.1291857 2.16147619,11.9424608 C2.16147619,8.75568847 2.17371429,8.37819908 2.23142857,7.11971158 C2.2847619,5.95607019 2.48019048,5.32412603 2.64447619,4.90357214 C2.86209524,4.34648155 3.12204762,3.94890486 3.54185714,3.53128826 C3.96161905,3.11362429 4.3612381,2.85500047 4.92119048,2.63849362 C5.34390476,2.47504753 5.97909524,2.28061775 7.14871429,2.22755699 C8.41366667,2.17013767 8.79309524,2.15796212 11.9962381,2.15796212 Z" id="Fill-1" fill="#282828" mask="url(#mask-2)"></path>
                            </g>
                            <path d="M11.6885899,15.5679541 C9.50599426,15.5679541 7.73668846,13.8076908 7.73668846,11.6362967 C7.73668846,9.46485577 9.50599426,7.70459246 11.6885899,7.70459246 C13.8711384,7.70459246 15.6404442,9.46485577 15.6404442,11.6362967 C15.6404442,13.8076908 13.8711384,15.5679541 11.6885899,15.5679541 Z M11.6885899,5.57936344 C8.32622175,5.57936344 5.60054207,8.29111282 5.60054207,11.6362967 C5.60054207,14.9814337 8.32622175,17.6931831 11.6885899,17.6931831 C15.0509109,17.6931831 17.7765906,14.9814337 17.7765906,11.6362967 C17.7765906,8.29111282 15.0509109,5.57936344 11.6885899,5.57936344 Z" id="Fill-4" fill="#282828"></path>
                            <path d="M19.4398209,5.34006394 C19.4398209,6.12177891 18.8028501,6.75544747 18.0171194,6.75544747 C17.2314359,6.75544747 16.5944651,6.12177891 16.5944651,5.34006394 C16.5944651,4.55834898 17.2314359,3.9246336 18.0171194,3.9246336 C18.8028501,3.9246336 19.4398209,4.55834898 19.4398209,5.34006394" id="Fill-5" fill="#282828"></path>
                        </g>
                    </g>
                </g>
            </g>
        </g>
    </g>
</svg>
