<?xml version="1.0" encoding="UTF-8"?>
<svg width="25px" height="24px" viewBox="0 0 25 24" version="1.1" xmlns="http://www.w3.org/2000/svg" xmlns:xlink="http://www.w3.org/1999/xlink">
    <!-- Generator: sketchtool 52.6 (67491) - http://www.bohemiancoding.com/sketch -->
    <title>0E721D40-567D-4C0F-9A4B-EDAE0D65496B</title>
    <desc>Created with sketchtool.</desc>
    <defs>
        <polygon id="path-1" points="0 0.00757142857 23.9924286 0.00757142857 23.9924286 23.9971429 0 23.9971429"></polygon>
    </defs>
    <g id="UI" stroke="none" stroke-width="1" fill="none" fill-rule="evenodd" opacity="0.5">
        <g id="Desktop-HD---1440---sub-nav-2-col" transform="translate(-1189.000000, -1474.000000)">
            <g id="footer" transform="translate(0.000000, 1409.000000)">
                <g id="footer-primary">
                    <g transform="translate(121.000000, 62.606796)">
                        <g id="social" transform="translate(912.000000, 2.000000)">
                            <g id="icon-/-social-/-insta" transform="translate(156.000000, 0.393204)">
                                <g id="insta" transform="translate(0.800000, 0.000000)">
                                    <g id="Group-3">
                                        <mask id="mask-2" fill="white">
                                            <use xlink:href="#path-1"></use>
                                        </mask>
                                        <g id="Clip-2"></g>
                                        <path d="M11.9962381,0.00757142857 C8.7382381,0.00757142857 8.32971429,0.0213809524 7.05019048,0.0797619048 C5.77333333,0.138 4.90128571,0.340809524 4.1382381,0.637380952 C3.34938095,0.943904762 2.68038095,1.35409524 2.01342857,2.021 C1.34652381,2.68795238 0.936333333,3.35695238 0.629809524,4.14580952 C0.333238095,4.90885714 0.130428571,5.78090476 0.0721904762,7.0577619 C0.0138095238,8.33728571 0,8.74580952 0,12.0038095 C0,15.2617619 0.0138095238,15.6702857 0.0721904762,16.9498095 C0.130428571,18.2266667 0.333238095,19.0987143 0.629809524,19.8617619 C0.936333333,20.650619 1.34652381,21.319619 2.01342857,21.9865714 C2.68038095,22.6534762 3.34938095,23.0636667 4.1382381,23.3702381 C4.90128571,23.6667619 5.77333333,23.8695714 7.05019048,23.9278095 C8.32971429,23.9861905 8.7382381,24 11.9962381,24 C15.2541905,24 15.6627143,23.9861905 16.9422381,23.9278095 C18.2190952,23.8695714 19.0911429,23.6667619 19.8541905,23.3702381 C20.6430476,23.0636667 21.3120476,22.6534762 21.979,21.9865714 C22.6459048,21.319619 23.0560952,20.650619 23.3626667,19.8617619 C23.6591905,19.0987143 23.862,18.2266667 23.9202381,16.9498095 C23.978619,15.6702857 23.9924286,15.2617619 23.9924286,12.0038095 C23.9924286,8.74580952 23.978619,8.33728571 23.9202381,7.0577619 C23.862,5.78090476 23.6591905,4.90885714 23.3626667,4.14580952 C23.0560952,3.35695238 22.6459048,2.68795238 21.979,2.021 C21.3120476,1.35409524 20.6430476,0.943904762 19.8541905,0.637380952 C19.0911429,0.340809524 18.2190952,0.138 16.9422381,0.0797619048 C15.6627143,0.0213809524 15.2541905,0.00757142857 11.9962381,0.00757142857 Z M11.9962381,2.16904762 C15.1993333,2.16904762 15.5787619,2.18128571 16.8437143,2.239 C18.0133333,2.29233333 18.6485238,2.4877619 19.0712381,2.65204762 C19.6311905,2.86966667 20.0308095,3.12961905 20.4505714,3.54942857 C20.870381,3.96919048 21.1303333,4.36880952 21.3479524,4.9287619 C21.5122381,5.35147619 21.7076667,5.98666667 21.761,7.15628571 C21.8187143,8.4212381 21.8309524,8.80066667 21.8309524,12.0038095 C21.8309524,15.2069048 21.8187143,15.5863333 21.761,16.8512857 C21.7076667,18.0209048 21.5122381,18.6560952 21.3479524,19.0788095 C21.1303333,19.6387619 20.870381,20.038381 20.4505714,20.4581429 C20.0308095,20.8779524 19.6311905,21.1379048 19.0712381,21.3555238 C18.6485238,21.5198095 18.0133333,21.7152381 16.8437143,21.7685714 C15.5789524,21.8262857 15.1995714,21.8385238 11.9962381,21.8385238 C8.79285714,21.8385238 8.41352381,21.8262857 7.14871429,21.7685714 C5.97909524,21.7152381 5.34390476,21.5198095 4.92119048,21.3555238 C4.3612381,21.1379048 3.96161905,20.8779524 3.54185714,20.4581429 C3.12209524,20.038381 2.86209524,19.6387619 2.64447619,19.0788095 C2.48019048,18.6560952 2.2847619,18.0209048 2.23142857,16.8512857 C2.17371429,15.5863333 2.16147619,15.2069048 2.16147619,12.0038095 C2.16147619,8.80066667 2.17371429,8.4212381 2.23142857,7.15628571 C2.2847619,5.98666667 2.48019048,5.35147619 2.64447619,4.9287619 C2.86209524,4.36880952 3.12204762,3.96919048 3.54185714,3.54942857 C3.96161905,3.12961905 4.3612381,2.86966667 4.92119048,2.65204762 C5.34390476,2.4877619 5.97909524,2.29233333 7.14871429,2.239 C8.41366667,2.18128571 8.79309524,2.16904762 11.9962381,2.16904762 Z" id="Fill-1" fill="#FFFFFF" mask="url(#mask-2)"></path>
                                    </g>
                                    <path d="M11.6885899,15.6479269 C9.50599426,15.6479269 7.73668846,13.8786211 7.73668846,11.6960726 C7.73668846,9.51347696 9.50599426,7.74417116 11.6885899,7.74417116 C13.8711384,7.74417116 15.6404442,9.51347696 15.6404442,11.6960726 C15.6404442,13.8786211 13.8711384,15.6479269 11.6885899,15.6479269 Z M11.6885899,5.60802477 C8.32622175,5.60802477 5.60054207,8.33370446 5.60054207,11.6960726 C5.60054207,15.0583936 8.32622175,17.7840733 11.6885899,17.7840733 C15.0509109,17.7840733 17.7765906,15.0583936 17.7765906,11.6960726 C17.7765906,8.33370446 15.0509109,5.60802477 11.6885899,5.60802477 Z" id="Fill-4" fill="#FFFFFF"></path>
                                    <path d="M19.4398209,5.36749594 C19.4398209,6.15322659 18.8028501,6.79015033 18.0171194,6.79015033 C17.2314359,6.79015033 16.5944651,6.15322659 16.5944651,5.36749594 C16.5944651,4.58176528 17.2314359,3.94479449 18.0171194,3.94479449 C18.8028501,3.94479449 19.4398209,4.58176528 19.4398209,5.36749594" id="Fill-5" fill="#FFFFFF"></path>
                                </g>
                            </g>
                        </g>
                    </g>
                </g>
            </g>
        </g>
    </g>
</svg>