<?xml version="1.0" encoding="UTF-8"?>
<svg width="16px" height="16px" viewBox="0 0 16 16" version="1.1" xmlns="http://www.w3.org/2000/svg" xmlns:xlink="http://www.w3.org/1999/xlink">
    <!-- Generator: sketchtool 52.5 (67469) - http://www.bohemiancoding.com/sketch -->
    <title>FE3F5CF3-ACAC-4409-898B-8DD1DE1BC0ED</title>
    <desc>Created with sketchtool.</desc>
    <g id="UI" stroke="none" stroke-width="1" fill="none" fill-rule="evenodd" opacity="0.597214472">
        <g id="iPhone-SE" transform="translate(-212.000000, -12.000000)">
            <g id="nav">
                <g id="super-nav-mobile">
                    <g id="super-nav">
                        <g id="nav-items" transform="translate(151.000000, 10.000000)">
                            <g id="translate" transform="translate(61.000000, 0.000000)">
                                <g id="icon-/-world" transform="translate(0.000000, 2.000000)">
                                    <g id="globe-3.2.3.1" transform="translate(0.615385, 0.615385)">
                                        <g id="Filled_Icons" fill="#E2E2E2">
                                            <g id="Group">
                                                <path d="M9.51569238,3.69230769 L5.25969238,3.69230769 C4.85907699,4.68307692 4.64984622,5.71446154 4.61846161,6.76923077 L10.1569231,6.76923077 C10.1249231,5.71446154 9.91569238,4.68307692 9.51569238,3.69230769 Z" id="Path"></path>
                                                <path d="M4.03507701,7.38461538 L0.00800000017,7.38461538 C0.0295384621,8.48492308 0.284307698,9.52430769 0.720615399,10.4615385 L4.60184625,10.4615385 C4.25907701,9.42830769 4.07015393,8.39876923 4.03507701,7.38461538 Z" id="Path"></path>
                                                <path d="M7.38707689,14.3526154 L7.44923074,14.2701538 C8.24430763,13.2098461 8.85476915,12.1415385 9.30092298,11.0769231 L5.4732308,11.0769231 C5.92000002,12.1415385 6.53046154,13.2110769 7.32615382,14.272 L7.38707689,14.3526154 Z" id="Path"></path>
                                                <path d="M10.1538462,7.38461538 L4.6215386,7.38461538 C4.65969245,8.39569231 4.86030783,9.424 5.23015397,10.4615385 L9.54400002,10.4615385 C9.91446154,9.424 10.1156923,8.39569231 10.1538462,7.38461538 Z" id="Path"></path>
                                                <path d="M10.1489234,3.69230769 C10.5156927,4.68492308 10.7144619,5.71569231 10.743385,6.76923077 L14.7390773,6.76923077 C14.6498466,5.65538462 14.3120004,4.61230769 13.7784619,3.69230769 L10.1489234,3.69230769 Z" id="Path"></path>
                                                <path d="M0.911999984,3.69230769 C0.401230762,4.60738462 0.0904615364,5.64923077 0.0221538452,6.76923077 L4.03138455,6.76923077 C4.06030762,5.71569231 4.25907685,4.68492308 4.62646146,3.69230769 L0.911999984,3.69230769 Z" id="Path"></path>
                                                <path d="M10.1723081,10.4615385 L14.079385,10.4615385 C14.5138465,9.52369231 14.7636927,8.48430769 14.7680004,7.38461538 L10.7396927,7.38461538 C10.7046158,8.39876923 10.5156927,9.42830769 10.1723081,10.4615385 Z" id="Path"></path>
                                                <path d="M6.83384611,14.6412307 C5.95446149,13.4683076 5.28984611,12.2732307 4.82215381,11.0769231 L1.04184613,11.0769231 C2.25538459,13.1581538 4.41538458,14.5901538 6.91261534,14.7458461 L6.83384611,14.6412307 Z" id="Path"></path>
                                                <path d="M9.9520003,11.0769231 C9.48492337,12.272 8.82030797,13.4670769 7.94153873,14.6387693 L7.86276949,14.7446154 C10.3809234,14.5753846 12.5544619,13.1458462 13.7600004,11.0775385 L9.9520003,11.0775385 L9.9520003,11.0769231 Z" id="Path"></path>
                                                <path d="M4.87815389,3.07692295 C5.34646159,2.0326153 5.99815391,1.03323073 6.85415392,0.10584615 L6.93415392,0.018461538 C4.5538462,0.155076917 2.53538463,1.31938456 1.2996923,3.07692295 L4.87815389,3.07692295 Z" id="Path"></path>
                                                <path d="M7.92123086,0.105846154 C8.77723086,1.03323076 9.42892317,2.03261537 9.89723087,3.07692306 L13.379077,3.07692306 C12.1218463,1.33415384 10.1236924,0.164307692 7.84492317,0.0240000005 L7.92123086,0.105846154 Z" id="Path"></path>
                                                <path d="M7.38769208,0.43446152 L7.30584593,0.523076908 C6.56061514,1.33107694 5.97907667,2.18707697 5.54215358,3.07692315 L9.23323059,3.07692315 C8.79692289,2.18707697 8.21476903,1.33107694 7.46953824,0.523692293 L7.38769208,0.43446152 Z" id="Path"></path>
                                            </g>
                                        </g>
                                        <g id="invisible_shape">
                                            <rect id="Rectangle" x="0" y="0" width="14.7692308" height="14.7692308"></rect>
                                        </g>
                                    </g>
                                </g>
                            </g>
                        </g>
                    </g>
                </g>
            </g>
        </g>
    </g>
</svg>