<?xml version="1.0" encoding="UTF-8"?>
<svg width="22px" height="15px" viewBox="0 0 22 15" version="1.1" xmlns="http://www.w3.org/2000/svg" xmlns:xlink="http://www.w3.org/1999/xlink">
    <!-- Generator: sketchtool 52.6 (67491) - http://www.bohemiancoding.com/sketch -->
    <title>8ACE3F63-7964-4082-9495-B0378C3E8849</title>
    <desc>Created with sketchtool.</desc>
    <g id="UI" stroke="none" stroke-width="1" fill="none" fill-rule="evenodd">
        <g id="Desktop-HD---1440---sub-nav-3-col" transform="translate(-1058.000000, -945.000000)">
            <g id="content" transform="translate(0.000000, 400.000000)">
                <g id="r-col" transform="translate(1056.000000, 60.000000)">
                    <g id="contact-info" transform="translate(0.000000, 367.000000)">
                        <g id="direct" transform="translate(1.000000, 78.000000)">
                            <g id="email" transform="translate(0.000000, 36.000000)">
                                <g id="Outline_Icons_1_" transform="translate(1.000000, 4.000000)" stroke="#000000" stroke-linecap="round" stroke-linejoin="round">
                                    <g id="Outline_Icons">
                                        <g id="Group">
                                            <path d="M21.5,13 C21.5,13.828 20.828,14.5 20,14.5 L2,14.5 C1.172,14.5 0.5,13.828 0.5,13 L0.5,2 C0.5,1.171 1.172,0.5 2,0.5 L20,0.5 C20.828,0.5 21.5,1.171 21.5,2 L21.5,13 Z" id="Path"></path>
                                            <polyline id="Path" points="21 1 11 9 1 1"></polyline>
                                        </g>
                                    </g>
                                </g>
                                <g id="Invisible_Shape">
                                    <rect id="Rectangle" x="0" y="0" width="24" height="24"></rect>
                                </g>
                            </g>
                        </g>
                    </g>
                </g>
            </g>
        </g>
    </g>
</svg>