<?xml version="1.0" encoding="UTF-8"?>
<svg width="23px" height="23px" viewBox="0 0 23 23" version="1.1" xmlns="http://www.w3.org/2000/svg" xmlns:xlink="http://www.w3.org/1999/xlink">
    <!-- Generator: sketchtool 52.6 (67491) - http://www.bohemiancoding.com/sketch -->
    <title>D8A2BADC-1446-486E-B156-F051F1C6FD72</title>
    <desc>Created with sketchtool.</desc>
    <g id="UI" stroke="none" stroke-width="1" fill="none" fill-rule="evenodd">
        <g id="Desktop-HD---1440---sub-nav-3-col" transform="translate(-1057.000000, -908.000000)">
            <g id="content" transform="translate(0.000000, 400.000000)">
                <g id="r-col" transform="translate(1056.000000, 60.000000)">
                    <g id="contact-info" transform="translate(0.000000, 367.000000)">
                        <g id="direct" transform="translate(1.000000, 78.000000)">
                            <g id="phone-5" transform="translate(0.000000, 2.000000)">
                                <g id="Outline_Icons_1_" transform="translate(0.000000, 1.000000)" stroke="#000000" stroke-linecap="round" stroke-linejoin="round">
                                    <g id="Outline_Icons">
                                        <path d="M8.586,6.902 C9.488,5.999 9.488,4.534 8.586,3.631 L6.132,1.178 C5.229,0.275 3.764,0.275 2.861,1.178 L1.516,2.523 C0.348,3.691 0.167,5.512 1.077,6.889 C4.986,12.799 10.201,18.014 16.111,21.923 C17.486,22.832 19.312,22.651 20.476,21.485 L21.822,20.139 C22.725,19.236 22.725,17.771 21.822,16.868 L19.369,14.415 C18.467,13.511 17.002,13.511 16.098,14.415 L15.281,15.232 C12.591,13.028 9.972,10.409 7.768,7.718 L8.586,6.902 Z" id="Path"></path>
                                    </g>
                                </g>
                                <g id="Invisible_Shape">
                                    <rect id="Rectangle" x="0" y="0" width="24" height="24"></rect>
                                </g>
                            </g>
                        </g>
                    </g>
                </g>
            </g>
        </g>
    </g>
</svg>