<?xml version="1.0" encoding="UTF-8"?>
<svg width="25px" height="18px" viewBox="0 0 25 18" version="1.1" xmlns="http://www.w3.org/2000/svg" xmlns:xlink="http://www.w3.org/1999/xlink">
    <!-- Generator: sketchtool 52.6 (67491) - http://www.bohemiancoding.com/sketch -->
    <title>E13974AB-D7CA-4C85-978E-C06F4069CDEC</title>
    <desc>Created with sketchtool.</desc>
    <g id="UI" stroke="none" stroke-width="1" fill="none" fill-rule="evenodd">
        <g id="iPhone-SE---parent-landing" transform="translate(-222.000000, -3497.000000)">
            <g id="footer" transform="translate(0.000000, 3165.000000)">
                <g id="social" transform="translate(26.000000, 307.420784)">
                    <g id="icon-/-social-/-yt" transform="translate(195.640000, 20.892675)">
                        <g id="logo-youtube-clip.2.3.1" transform="translate(0.400000, 0.000000)">
                            <g id="Filled_Icons" transform="translate(0.000000, 3.979557)" fill="#282828" fill-rule="nonzero">
                                <path d="M20.062,0 L3.938,0 C1.767,0 0,1.75896421 0,3.91886879 L0,12.9932537 C0,15.1541532 1.767,16.9131174 3.938,16.9131174 L20.063,16.9131174 C22.233,16.9131174 24,15.1541532 24,12.9932537 L24,3.91886879 C24,1.75896421 22.233,0 20.062,0 Z M16.538,8.48740052 L9.769,12.7962661 C9.687,12.8480004 9.593,12.8748624 9.5,12.8748624 C9.417,12.8748624 9.335,12.8539697 9.26,12.8131792 C9.1,12.7266239 9,12.5584876 9,12.3774177 L9,3.75968653 C9,3.5766269 9.1,3.4094855 9.26,3.32193524 C9.421,3.23537987 9.616,3.24234409 9.77,3.33984325 L16.539,7.64970372 C16.683,7.74123354 16.77,7.89842605 16.77,8.06855212 C16.769,8.23867819 16.682,8.3958707 16.538,8.48740052 Z" id="Shape"></path>
                            </g>
                            <g id="Frames-24px">
                                <rect id="Rectangle" x="0" y="0" width="24" height="23.8773422"></rect>
                            </g>
                        </g>
                    </g>
                </g>
            </g>
        </g>
    </g>
</svg>